<?xml version="1.0" encoding="UTF-8" standalone="no"?>
<!-- Created with Inkscape (http://www.inkscape.org/) -->

<svg
   xmlns:dc="http://purl.org/dc/elements/1.1/"
   xmlns:cc="http://creativecommons.org/ns#"
   xmlns:rdf="http://www.w3.org/1999/02/22-rdf-syntax-ns#"
   xmlns:svg="http://www.w3.org/2000/svg"
   xmlns="http://www.w3.org/2000/svg"
   xmlns:sodipodi="http://sodipodi.sourceforge.net/DTD/sodipodi-0.dtd"
   xmlns:inkscape="http://www.inkscape.org/namespaces/inkscape"
   id="svg2"
   version="1.1"
   inkscape:version="0.48.2 r9819"
   width="25.224417"
   height="28.906582"
   sodipodi:docname="blank3.svg">
  <metadata
     id="metadata8">
    <rdf:RDF>
      <cc:Work
         rdf:about="">
        <dc:format>image/svg+xml</dc:format>
        <dc:type
           rdf:resource="http://purl.org/dc/dcmitype/StillImage" />
        <dc:title></dc:title>
      </cc:Work>
    </rdf:RDF>
  </metadata>
  <defs
     id="defs6" />
  <sodipodi:namedview
     pagecolor="#ffffff"
     bordercolor="#666666"
     borderopacity="1"
     objecttolerance="10"
     gridtolerance="10"
     guidetolerance="10"
     inkscape:pageopacity="0"
     inkscape:pageshadow="2"
     inkscape:window-width="1680"
     inkscape:window-height="900"
     id="namedview4"
     showgrid="false"
     inkscape:zoom="7.0264084"
     inkscape:cx="-26.779316"
     inkscape:cy="0.36402999"
     inkscape:window-x="1920"
     inkscape:window-y="92"
     inkscape:window-maximized="1"
     inkscape:current-layer="a3783"
     fit-margin-top="0"
     fit-margin-left="0"
     fit-margin-right="0"
     fit-margin-bottom="0" />
  <a
     id="a3783"
     transform="translate(-19.775583,-10.59375)">
    <path
       style="fill:#f69532;fill-opacity:1;stroke:#00d7ff;stroke-width:0.48495135;stroke-miterlimit:2.20000005;stroke-opacity:1"
       d="m 20.989199,11.775076 c 7.39235,-0.950027 9.886097,-0.528815 22.461687,-0.938272 l 0.03606,13.397892 0.978292,15.030466 c -3.264071,0.0069 -13.421835,0.328424 -17.016798,0.219802 -4.198706,-0.126865 -1.880574,-0.685099 -6.298809,-0.647111 -0.576353,-2.492073 -1.484017,-5.878039 -1.665262,-9.076382 -0.335608,-5.922315 -0.132427,-11.02472 0.09638,-14.247514 0.283492,-3.993117 -0.255883,-3.379263 1.408455,-3.738881 z"
       id="rect3003"
       inkscape:connector-curvature="0"
       sodipodi:nodetypes="ccccscssc" />
    <path
       style="fill:#b7732d;fill-opacity:1;stroke:none"
       d="m 43.198941,11.407656 c 0.366273,-0.02029 0.09423,0.790087 0.105797,1.140688 l 0.256965,12.241923 0.616222,14.218353 c 0.01519,0.350449 -0.423254,0.105079 -0.789527,0.125367 -0.366274,0.02029 -0.525233,0.02641 -0.532761,-0.324268 l -0.303626,-14.0045 -0.284906,-13.408267 c -0.0075,-0.350832 0.565573,0.03099 0.931846,0.01071 z"
       id="rect3005"
       inkscape:connector-curvature="0"
       sodipodi:nodetypes="cscssscssc" />
  </a>
</svg>
