<?xml version="1.0" encoding="UTF-8" standalone="no"?>
<!-- Created with sK1/UniConvertor (http://sk1project.org/) -->

<svg
   xmlns:dc="http://purl.org/dc/elements/1.1/"
   xmlns:cc="http://creativecommons.org/ns#"
   xmlns:rdf="http://www.w3.org/1999/02/22-rdf-syntax-ns#"
   xmlns:svg="http://www.w3.org/2000/svg"
   xmlns="http://www.w3.org/2000/svg"
   xmlns:xlink="http://www.w3.org/1999/xlink"
   xmlns:sodipodi="http://sodipodi.sourceforge.net/DTD/sodipodi-0.dtd"
   xmlns:inkscape="http://www.inkscape.org/namespaces/inkscape"
   width="834.17566"
   height="917.50708"
   viewBox="0 0 667.34055 734.00563"
   id="svg2985"
   version="1.1"
   inkscape:version="0.48.2 r9819"
   sodipodi:docname="old_man01-openclipart.org.svg"
   style="fill-rule:evenodd"
   inkscape:export-filename="/home/matthieu/Bureau/Matthieu/Programmation/Lazarus Delphi/AncestroWeb/Resources/old_man01-openclipart.org.png"
   inkscape:export-xdpi="9.1225452"
   inkscape:export-ydpi="9.1225452">
  <metadata
     id="metadata3139">
    <rdf:RDF>
      <cc:Work
         rdf:about="">
        <dc:format>image/svg+xml</dc:format>
        <dc:type
           rdf:resource="http://purl.org/dc/dcmitype/StillImage" />
        <dc:title></dc:title>
      </cc:Work>
    </rdf:RDF>
  </metadata>
  <defs
     id="defs3137">
    <linearGradient
       inkscape:collect="always"
       id="linearGradient4025">
      <stop
         style="stop-color:#800080;stop-opacity:1;"
         offset="0"
         id="stop4027" />
      <stop
         style="stop-color:#800080;stop-opacity:0;"
         offset="1"
         id="stop4029" />
    </linearGradient>
    <linearGradient
       inkscape:collect="always"
       xlink:href="#linearGradient4025"
       id="linearGradient4031"
       x1="344.20386"
       y1="562.83185"
       x2="376.19348"
       y2="782.90771"
       gradientUnits="userSpaceOnUse"
       gradientTransform="translate(18.862772,-33.965899)" />
  </defs>
  <sodipodi:namedview
     pagecolor="#ffffff"
     bordercolor="#666666"
     borderopacity="1"
     objecttolerance="10"
     gridtolerance="10"
     guidetolerance="10"
     inkscape:pageopacity="0"
     inkscape:pageshadow="2"
     inkscape:window-width="1680"
     inkscape:window-height="900"
     id="namedview3135"
     showgrid="false"
     inkscape:zoom="0.17671579"
     inkscape:cx="-620.89892"
     inkscape:cy="391.58374"
     inkscape:window-x="1920"
     inkscape:window-y="92"
     inkscape:window-maximized="1"
     inkscape:current-layer="svg2985"
     fit-margin-top="0"
     fit-margin-left="0"
     fit-margin-right="0"
     fit-margin-bottom="0" />
  <a
     transform="matrix(26.890467,0,0,24.345286,-535.26458,-228.28596)"
     id="a3783">
    <path
       sodipodi:nodetypes="ccccc"
       inkscape:connector-curvature="0"
       id="rect3003"
       d="m 21.329771,11.238698 c 7.25532,-0.02026 8.633651,-0.671155 21.765959,-0.06079 l 0,29.645203 -23.286739,-1.275005 c -0.780518,-13.970444 -0.733888,-25.02793 1.52078,-28.309408 z"
       style="fill:#f69532;fill-opacity:1;stroke:#00d7ff;stroke-width:0.49507672;stroke-miterlimit:2.20000005;stroke-opacity:1"
       transform="matrix(0.99936625,-0.03559621,0.03421637,0.99941445,0,0)" />
    <path
       sodipodi:nodetypes="sssssss"
       inkscape:connector-curvature="0"
       id="rect3005"
       d="m 43.005258,12.624143 c 0.366887,0 0.07687,0.831009 0.08072,1.198018 l 0.290765,27.698653 c 0.0039,0.367009 -0.425762,0.0853 -0.792649,0.0853 -0.366888,0 -0.526054,-0.0028 -0.525862,-0.369658 l 0.01499,-28.677428 c 1.91e-4,-0.366881 0.565149,0.06511 0.932033,0.06512 z"
       style="fill:#b7732d;fill-opacity:1;stroke:none"
       transform="matrix(0.99832607,-0.05783646,0.02104466,0.99977854,0,0)" />
  </a>
  <path
     style="fill:url(#linearGradient4031);fill-opacity:1;stroke:none"
     d="m 176.18367,534.76338 c 0,-8.432 5.569,-8.964 5.569,-14.321 l 1.591,0 c 0,-2.045 3.806,-3.978 5.569,-3.978 0,-34.283 165.765,-92.744 276.924,-81.914 24.764,2.413 46.44,12.61 63.395,22.379 15.866,9.141 28.795,18.247 33.601,35.668 18.888,68.472 -27.686,117.181 -81.149,148.772 -54.998,32.499 -277.388,88.434 -315.047,11.934 -12.143,-24.667 -0.739,-95.639 9.547,-118.54 z"
     id="path3049"
     inkscape:connector-curvature="0" />
  <path
     style="fill:#ffcc99;stroke:none"
     d="m 80.480167,309.58938 c 4.5887,-3.801 12.777,0.017 20.033203,0.76 11.1482,1.143 23.9963,0.357 35.4123,3.138 8.331,2.028 19.094,8.074 22.798,2.704 4.197,-6.087 3.241,-13.278 5.273,-19.233 2.304,-6.748 6.947,-14.752 7.657,-22.708 2.312,-25.919 -9.965,-59.529 -7.774,-91.828 1.579,-23.285 5.444,-46.096 14.447,-65.58 15.684,-33.943999 43.658,-58.62 78.586,-64.059 32.766,-5.101 83.459,23.442001 101.622,41.406001 20.589,20.362999 30.713,42.723999 34.556,65.740999 2.63,15.748 0.809,32.021 3.379,47.315 0.738,4.388 8.479,7 10.233,12.847 2.115,7.056 -0.402,19.664 1.846,22.437 -1.805,8.531 3.046,15.391 3.93,24.467 15.062,-11.822 36.587,-31.9 54.112,-31.9 6.971,6.971 15.825,63.485 5.481,77.801 -13.993,24.257 -46.1,22 -57.369,15.042 -4.905,11.062 -16.501,20.665 -18.858,32.662 -1.931,9.823 0.563,22.205 1.104,33.868 0.794,17.119 14.516,35.875 16.259,48.142 0.704,4.949 -1.012,18.123 -6.447,34.517 -4.084,10.225 -8.474,24.479 -17.714,33.359 -6.53,6.275 -17.412,12.2 -27.074,15.837 -20.201,7.607 -42.419,2.835 -63.134,-8.508 -12.117,-6.634 -24.388,-15.383 -33.673,-25.57 -6.506,-7.138 -14.968,-11.342 -14.279,-20 0.547,-6.881 -5.222,-12.941 -9.636,-20.155 -8.427,-13.772 -19.577,-28.689 -26.176,-40.052 -11.65,-20.062 -15.292,-31.295 -19.132,-36.896 -2.544,-3.71 -6.315,-4.381 -8.457,-5.56 -4.184,-2.303 -9.02,-5.485 -30.038,0.044 -11.539,3.035 -32.595,11.435 -42.7993,8.274 -15.611003,-4.837 -23.742403,-20.184 -38.432003,-27.902 -3.6892,-1.938 -1.7848,-35.399 4.2638,-40.41 z m 281.714503,-52.761 c 18.885,-4.219 26.009,1.553 26.009,11.531 0,9.978 -2.088,17.884 -19.592,22.738 -17.503,4.855 -34.65,-14.29 -34.127,-20.778 0.524,-6.488 8.826,-9.273 27.71,-13.491 z m -109.017,-0.122 c 9.639,-1.128 17.229,4.544 18.346,11.503 1.116,6.958 -3.46,21.898 -18.012,26.799 -2.634,0.887 -9.41,2.401 -16.334,0.633 -7.847,-2.003 -16.056,-8.811 -19.392,-13.608 -3.376,-4.856 -2.264,-4.89 -2.264,-7.691 0,-6.403 28.017,-16.509 37.656,-17.636 z"
     id="path3051"
     inkscape:connector-curvature="0" />
  <path
     style="fill:#c79461;stroke:none"
     d="m 272.04667,260.40438 c 3.233,0.095 6.358,-0.467 8.994,1.05 2.05,1.18 5.121,2.603 7.645,3.375 5.091,1.558 6.688,-2.701 10.439,-2.701 0,14.527 -14.075,25.048 -24.596,35.821 -6.393,6.547 -10.653,18.487 -16.896,21.745 -6.645,3.468 -10.53,4.213 -18.556,1.385 -6.665,-2.348 -11.176,-9.53 -14.688,-11.847 15.384,2.065 29.438,0.118 34.578,-16.972 8.79,-5.757 16.932,-21.328 16.007,-27.096 -0.306,-1.909 -1.361,-3.491 -2.927,-4.76 z"
     id="path3053"
     inkscape:connector-curvature="0" />
  <path
     style="fill:#c79461;stroke:none"
     d="m 276.23067,53.90738 c 16.775,1.927 34.891,7.129 50.469,15.740001 13.746,7.598 25.516,18.301 32.647,25.354 18.829,21.864999 27.792,40.237999 33.174,62.145999 4.271,17.386 2.349,35.769 5.167,52.534 0.738,4.388 7.261,4.564 9.015,10.411 2.115,7.056 -0.402,19.664 1.846,22.437 -1.805,8.531 3.046,15.391 3.93,24.467 15.062,-11.822 36.587,-31.9 54.112,-31.9 6.971,6.971 15.825,63.485 5.481,77.801 -13.993,24.257 -46.1,22 -57.369,15.042 -4.905,11.062 -16.501,20.665 -18.858,32.662 -1.629,8.288 4.618,18.484 3.066,28.36 -3.028,19.272 8.375,33.258 13.283,49.997 3.735,12.742 -0.81,19.95 -6.245,36.343 -3.822,11.528 -7.658,30.81 -22.426,38.223 13.684,-25.401 -2.856,-52.01 -14.126,-61.045 -0.671,0.11 -1.34,0.231 -2.005,0.364 l -21.255,4.926 -24.199,7.907 c 2.754,-5.291 5.053,-10.841 9.749,-14.518 6.695,-5.243 14.481,-9.389 22.787,-11.209 0.975,-0.213 3.847,-0.617 7.447,-0.691 5.4,-0.111 8.205,-2.005 10.43,-4.8 8.611,-10.819 7.943,-26.005 -14.441,-27.945 10.537,-11.722 1.218,-15.252 -1.324,-20.584 -10.571,8.665 -3.219,-13.671 -1.616,-25.582 2.73,-17.975 2.52,-34.281 -1.326,-38.127 -9.259,-9.259 -16.274,-23.696 -21.785,-36.142 -2.988,-6.748 -6.762,-11.276 -7.411,-17.814 7.428,-3.49 10.796,-11.062 11.919,-22.944 0.81,-8.58 -3.21,-23.739 -9.934,-36.468 -3.283,-6.216 -9.961,-13.767 -15.02,-15.782 -1.857,-0.74 12.758,-1.984 12.264,-3.666 7.238,-5.5 11.243,-19.19 -0.259,-27.461 6.057,-12.414 9.392,-31.874 1.998,-55.857 -4.99,-16.183999 -37.759,-45.639 -50.651,-51.046 0.479,-0.383 0.969,-0.759 1.466,-1.133 z m 91.647,202.921 c 17.653,0.219 17.92,3.614 20.528,8.486 2.609,4.872 -2.493,17.275 -18.373,22.942 -15.88,5.667 -36.071,-10.638 -35.548,-17.125 0.331,-4.105 4.318,-7.149 11.212,-9.838 4,-1.561 15.13,-4.553 22.181,-4.465 z"
     id="path3055"
     inkscape:connector-curvature="0" />
  <path
     style="fill:#c79461;stroke:none"
     d="m 139.33967,327.26338 c 12.555,2.73 22.276,12.17 33.83,16.34 4.438,1.602 14.081,14.823 11.019,20.202 -2.788,4.897 -18.652,5.297 -28.365,7.852 -11.538,3.035 -30.768,9.811 -40.9723,6.65 -12.0888,-3.75 -19.992303,-14.8 -25.909303,-18.076 -9.1859,-7.828 -9.9313,-11.66 -9.317,-25.155 0.1694,-3.725 2.7492,-7.814 5.885,-9.511 3.1357,-1.697 6.8282,-1.001 11.6565,-1.648 8.048903,-1.08 17.517803,-2.507 25.510103,-1.517 7.994,0.989 14.512,4.396 16.663,4.863 z"
     id="path3057"
     inkscape:connector-curvature="0" />
  <path
     style="fill:#c79461;stroke:none"
     d="m 333.99867,316.16238 c 4.268,0.107 10.805,15.32 11.207,31.302 0.401,15.981 -5.332,32.732 -8.599,35.914 -0.508,0.495 -3.515,0.274 -3.773,-4.096 -0.402,-6.819 5.36,-21.282 5.579,-35.063 0.275,-17.265 -5.699,-28.09 -4.414,-28.057 z"
     id="path3059"
     inkscape:connector-curvature="0" />
  <path
     style="fill:#c79461;stroke:none"
     d="m 315.56867,247.58838 c 0.68,7.267 -1.222,13.282 -2.531,15.283 -0.389,0.593 -3.373,1.03 -4.572,-3.181 -0.643,-2.256 0.554,-6.842 0.197,-12.195 -0.459,-6.881 -2.898,-13.008 -3.32,-19.106 4.256,4.256 9.676,13.326 10.226,19.199 z"
     id="path3061"
     inkscape:connector-curvature="0" />
  <path
     style="fill:#c79461;stroke:none"
     d="m 369.08967,420.12438 c -1.177,-4.139 -16.619,-4.963 -29.975,-0.729 -13.355,4.233 -26.172,13.139 -27.978,17.251 -0.282,0.64 0.668,3.515 4.358,2.501 5.757,-1.581 16.67,-9.851 28.042,-14.055 14.247,-5.267 25.907,-3.723 25.553,-4.968 z"
     id="path3063"
     inkscape:connector-curvature="0" />
  <path
     style="fill:#91663a;stroke:none"
     d="m 336.98567,265.81238 c -2.904,0.077 -5.712,-0.371 -8.08,0.837 -1.841,0.938 -5.338,-0.817 -6.174,1.149 -0.111,0.263 6,9.315 9.534,18.09 2.962,7.355 3.198,8.479 10.011,9.429 8.308,1.158 13.213,14.284 23.285,14.591 8.045,0.246 15.08,-7.039 14.717,-10.101 -13.212,7.124 -28.486,-1.18 -33.104,-14.784 -8.59,-3.969 -13.119,-12.365 -12.566,-15.421 0.554,-3.055 0.97,-2.779 2.377,-3.79 z"
     id="path3065"
     inkscape:connector-curvature="0" />
  <path
     style="fill:#e3e3e3;stroke:none"
     d="m 415.59167,453.67538 c -0.277,4.252 -1.371,5.647 -2.181,8.423 0,0.007 -12.168,31.967 -13.017,33.963 -1.833,4.304 -6.759,13.677 -10.271,15.689 -1.005,0.575 -2.595,1.041 -3.707,1.473 0.034,0.033 0.068,0.069 0.102,0.106 0.918,1.527 3.197,1.862 4.207,3.263 3.725,2.228 4.411,-0.735 7.542,-3.315 3.131,-2.58 6.685,-6.131 10.454,-7.789 5.682,-2.498 28.621,12.646 31.365,15.955 6.256,7.545 21.874,20.733 24.253,30.945 l 1.018,0 c 0,-2.765 1.603,-9.555 2.028,-11.225 0.931,-3.65 1.529,-1.528 1.209,-4.955 -0.248,-2.662 -0.509,-4.564 0.34,-6.719 0.77,-1.949 1.51,-17.065 1.51,-21.871 -10e-4,-19.729 0.644,-40.053 -3.854,-59.413 -0.456,-0.793 -2.692,-9.855 -2.856,-11.3 -0.914,-8.056 -2.723,-14.265 -10.704,-18.306 -3.564,-4.072 -2.72,-4.614 -7.541,-8.738 -1.654,-1.414 -6.535,-6.341 -7.843,-7.928 -1.476,-1.793 -6.057,-6.457 -10.355,-9.936 -1.562,-1.264 -9.2,-2.107 -15.253,-3.347 -4.826,-0.989 -9.326,-0.076 -10.698,0.118 l -1.463,15.756 c 1.463,5.115 3.634,10.02 5.832,14.689 6.492,6.986 10.268,26.353 9.883,34.462 z m -82.006,76.371 c -23.584,-0.849 -23.309,-5.955 -38.246,-13.176 -12.511,-6.049 -19.732,-13.892 -29.84,-22.053 -5.347,-4.316 -12.69,-23.584 -16.511,-30.588 -1.885,-3.453 -8.934,-12.789 -11.542,-15.861 -2.39,-2.816 -2.545,-5.165 -4.366,-7.885 -1.108,-1.656 -6.221,-0.954 -10.897,-0.145 -9.568,1.658 -12.387,2.364 -13.179,12.844 l -1.356,11.218 -0.659,6.09 c -1.845,14.369 -4.043,24.729 -5.438,36.98 -1.707,22.87 4.909,18.829 23.385,46.391 10.831,16.157 27.031,31.437 54.39,50.636 7.739,4.896 17.975,12.817 36.718,7.86 -14.065,-10.661 -4.014,-50.037 4.634,-62.938 2.542,-1.092 9.033,4.705 10.306,1.079 3.479,-9.908 14.301,-11.843 14.307,-15.224 -0.352,-0.848 -0.732,-3.865 -0.689,-5.391 -2.796,0.348 -5.426,0.364 -11.017,0.163 z"
     id="path3067"
     inkscape:connector-curvature="0" />
  <path
     style="fill:#cccccc;stroke:none"
     d="m 420.70767,510.03238 c 9.342,4.415 20.234,11.513 21.978,13.617 6.368,7.68 21.166,25.056 23.588,35.451 l 1.036,0 c 0,-2.814 1.632,-9.727 2.065,-11.426 0.947,-3.715 1.556,-1.556 1.23,-5.044 -0.252,-2.71 -0.518,-4.645 0.347,-6.839 0.783,-1.984 1.537,-17.372 1.536,-22.264 -10e-4,-20.084 0.656,-40.773 -3.923,-60.48 -0.464,-0.808 -2.74,-10.032 -2.907,-11.504 -0.931,-8.2 -2.772,-14.52 -10.896,-18.634 -3.629,-4.145 -2.769,-4.697 -7.676,-8.895 -1.684,-1.439 -6.653,-6.455 -7.984,-8.07 -1.503,-1.825 -6.166,-6.574 -10.542,-10.114 -1.589,-1.287 -8.276,-5.628 -14.437,-6.89 -0.42,-0.086 -11.998,0.255 -12.412,0.196 0.851,2.974 -0.565,14.473 -0.565,16.123 1.41,0.47 8.239,-3.726 14.468,0.21 3.186,2.013 13.236,31.159 13.236,32.264 2.78,0.926 1.655,24.247 1.655,28.955 0,15.286 -5.166,29.165 -9.797,43.344 z"
     id="path3069"
     inkscape:connector-curvature="0" />
  <g
     id="g3071"
     transform="translate(15.661667,-56.37362)">
    <path
       style="fill:#302f2e;stroke:none"
       d="m 207.995,497.859 c 10.894,-2.095 9.392,2.99 14.507,10.646 2.947,4.411 9.291,10.813 11.39,14.9 1.196,2.324 3.316,39.072 3.675,44.177 0.844,11.968 1.444,27.623 1.616,39.672 0.083,5.91 1.285,15.049 2.026,21.118 1.426,11.672 2.058,14.942 -7,6.554 -9.642,-8.929 -42.443,-47.154 -46.417,-57.881 -1.276,-3.444 4.593,-37.352 5.315,-44.08 0.774,-7.216 1.023,-15.091 2.064,-22.311 1.523,-10.561 3.209,-10.947 12.824,-12.795 z M 293.008,405.3 c -2.092,-4.461 -9.638,-9.333 -12.083,-13.611 -1.976,-3.461 4.483,-11.503 4.597,-19.027 0.328,-21.556 6.502,-22.272 28.134,-22.08 7.44,0.067 7.748,7.614 11.511,13.505 3.243,5.079 6.725,10.148 9.922,15.236 7.668,12.202 4.526,28.017 2.223,41.61 -1.105,6.528 -3.648,40.391 -17.225,30.321 -13.049,-9.681 -21.006,-9.87 -34.316,-16.584 -13.558,-6.837 -18.631,-11.179 -29.675,-21.143 -4.515,-4.073 -7.266,-17.383 1.679,-15.289 8.726,2.041 12.808,-2.844 19.031,-4.847 6.29,3.433 7.906,11.935 16.202,11.909 z m -37.813,-11.522 c 0.964,-5.98 10.606,-13.191 16.562,-12.499 l 3.404,7.332 c -3.438,4.743 -15.287,7.812 -19.966,5.167 z m 99.135,18.628 c 0.869,6.817 -11.416,26.371 -15.247,25.289 -0.02,-0.107 3.594,-21.715 3.706,-26.88 0.076,-3.472 0.654,-9.985 1.026,-13.563 0.273,-2.634 -0.541,-13.023 -0.514,-13.069 9.432,6.534 9.744,18.15 11.029,28.223 z m -99.05,-55.397 c -1.763,0.867 -14.648,24.322 -16.402,15.414 -0.71,-3.609 10.678,-18.632 14.952,-20.386 31.939,-13.108 32.25,27.197 23.642,32.255 l -4.383,-6.749 c -9.214,-0.687 -15.796,8.805 -21.249,13.759 -4.425,0.402 -11.041,-7.927 -11.202,-11.71 7.478,-9.453 11.304,-8.477 14.642,-22.583 z M 361.326,341.32 c -2.149,-1.259 -8.782,2.599 -11.765,3.39 -2.437,0.648 -10.303,-2.424 -11.586,-3.617 -4.341,-4.037 14.948,-7.581 22.206,-2.462 8.165,5.758 11.862,8.94 10.304,19.372 -1.081,7.252 -2.741,17.694 -10.029,21.181 -7.039,3.37 -15.614,6.899 -21.352,-1.368 -4.512,-6.501 -8.098,-12.449 -12.942,-18.753 -2.121,-2.76 -2.322,-9.455 4.935,-3.894 2.171,1.664 6.47,5.306 8.371,7.193 2.593,2.576 16.232,11.541 19.41,10.781 l 0.561,-0.669 -6.219,-5.223 c 5.012,-2.421 5.078,1.203 9.477,-5.443 1.392,-2.101 4.328,-7.498 3.25,-9.829 -3.769,1.597 -1.09,7.577 -7.798,10.813 -4.221,2.035 -11.01,3.364 -14.34,-0.748 -3.836,-4.735 -20.938,-11.31 -12.408,-18.985 5.732,-0.089 10.253,2.782 15.889,3.489 2.942,0.37 13.296,-2.909 14.036,-5.228 z m -111.819,6.287 c -0.237,-1.737 4.422,-6.874 5.558,-9.425 3.749,-8.415 -1.82,-4.935 7.358,-8.237 5.3,-1.908 1.406,-6.409 9.092,-5.824 5.818,0.443 7.897,-4.413 10.808,-4.04 2.85,0.366 4.057,5.257 9.278,6.145 6.591,1.122 8.835,-1.816 12.125,-0.635 4.209,1.509 10.852,14.776 11.906,19.358 -1.799,1.067 -14.532,1.693 -18.487,2.111 -8.711,0.922 -7.16,5.691 -14.639,7.427 -4.801,-2.706 -9.173,-7.96 -14.799,-8.933 -5.004,-0.865 -16.026,2.276 -18.2,2.053 z m 69.745,-4.094 c 1.821,0.306 4.294,2.087 4.355,3.852 -2.712,0.154 -4.311,-1.09 -4.355,-3.852 z m -0.086,-10.65 1.383,0.064 5.226,7.336 0.451,2.661 c -3.445,1.522 -2.446,-4.285 -7.06,-5.534 l -2.746,1.591 -1.278,-5.112 c 1.199,-0.565 2.665,-1.093 4.024,-1.006 z m -5.533,-1.388 c -8.138,-6.664 6.774,-6.896 12.503,-8.749 6.561,-2.124 5.601,-3.129 7.181,3.027 1.211,4.717 4.3,5.287 4.522,8.68 -10.911,12.549 -12.559,-12.553 -24.206,-2.958 z m -72.567,-7.795 -1.887,0.8 -1.886,-3.058 0.825,-0.694 c 2.147,0.6 2.67,0.785 2.948,2.952 z m 116.383,-3.838 -2.425,0.457 -1.84,-2.923 3.003,-0.77 1.262,3.236 z M 265.832,253.9 c 1.994,-1.26 8.19,-2.9 11.094,-3.184 5.563,-0.542 6.067,-0.532 7.794,4.919 2.807,8.863 3.921,11.956 7.968,20.203 8.197,16.706 18.187,20.919 9.049,39.093 -2.088,4.152 -1.263,6.761 -7.086,6.75 -4.186,-0.007 -7.923,-1.043 -7.705,-5.834 0.364,-7.97 2.194,-16.319 -3.065,-23.152 -5.619,-7.301 -7.282,-0.748 -12.434,-16.241 -1.333,-4.008 -5.573,-18.957 -5.615,-22.554 z m 36.23,-5.547 c 5.954,-1.035 12.585,34.067 13.4,39.924 1.133,8.143 1.114,15.297 -1.865,22.925 -0.416,1.066 -3.254,9.203 -3.343,9.298 -1.599,1.711 -7.189,2.951 -3.8,-4.375 8.006,-17.31 -0.41,-24.416 -8.547,-38.463 -3.467,-5.984 -6.025,-12.489 -8.098,-19.062 -3.849,-12.2 -0.866,-7.965 12.253,-10.247 z m -46.383,-27.342 -34.174,7.75 0.165,0.887 c 1.559,1.021 2.913,1.1 4.937,1.1 l 4.527,0 c 7.725,0 16.56,-4.025 25.955,-4.073 l 3.597,22.288 -0.206,0.553 -14.255,-1.163 -7.041,0 c -10.739,0 -13.051,4.832 -25.903,2.764 -4.617,-0.744 -18.476,-11.859 -19.139,-7.377 0.126,0.158 11.599,6.952 13.294,8.191 4.837,3.539 11.831,3.272 17.239,2.546 13.99,-1.876 21.51,-4.858 36.739,-0.686 2.035,2.545 6.907,26.587 10.349,33.414 3.099,6.148 9.29,5.636 11.316,10.294 2.402,5.528 2.167,12.75 -2.174,17.258 -5.454,5.664 -6.513,7.488 -13.495,2.934 -2.983,-1.945 -5.546,-1.018 -7.984,-3.057 -1.965,-1.644 -2.687,-4.067 -5.094,-5.974 -7.288,-5.776 -11.936,-2.254 -16.559,-5.574 -6.327,-4.545 -6.583,-4.968 -14.064,-8.07 -10.697,-4.434 -18.56,-8.961 -27.595,-16.168 -3.8,-3.03 -7.413,-7.363 -10.602,-11.096 -6.496,-7.602 -3.983,-0.004 0.572,5.549 6.167,7.517 15.182,15.734 24.088,19.659 7.695,3.39 23.521,9.831 27.503,16.764 -6.091,-0.612 -61.296,8.59 -59.018,15.255 4.508,3.714 4.232,-4.34 8.179,2.947 l 17.49,-6.529 0.92,1.361 -8.734,7.418 c 4.144,6.998 11.821,-6.769 18.526,-7.373 2.56,9.385 7.127,21.232 20.81,16.291 16.675,-6.022 13.061,-9.076 8.868,-23.334 l 0.201,-0.781 15.719,4.041 0.172,0.582 0.211,6.346 -0.768,-0.47 -8.319,3.512 0.071,0.926 1.268,4.913 c -2.115,3.417 -3.865,6.021 -6.011,9.633 -1.785,3.005 -2.683,2.468 -3.808,3.798 -2.55,3.019 2.235,0.873 0.178,5.057 -0.31,0.631 -5.044,8.408 -5.873,9.811 -2.378,4.025 -8.119,-0.018 -9.838,4.905 1.091,3.027 3.164,0.641 3.995,5.799 0.537,3.336 0.037,6.539 -0.052,9.824 -0.158,5.853 0.407,12.662 0.08,17.894 -0.739,11.823 0.781,24.879 0.713,36.942 -0.148,26.419 2.504,53.169 2.504,79.488 -4.349,-3.155 -25.778,-34.247 -30.72,-41.213 -5.325,-7.505 -19.061,-43.101 -25.117,-46.818 0.809,6.736 12.734,24.147 15.634,33.16 3.695,11.483 16.568,26.187 18.07,31.228 -16.102,2.864 -19.913,0.57 -21.956,18.288 -1.352,11.724 -1.859,26.165 -3.934,37.314 -6.401,34.389 -2.098,31.2 17.437,57.985 4.957,6.798 13.212,16.14 19.143,22.105 3.131,3.149 7.353,7.229 10.203,10.423 5.564,6.238 8.338,2.053 8.969,12.159 0.685,11 3.537,66.657 8.743,72.485 l 0.537,-0.266 -6.563,-73.193 c 3.521,-1.337 28.602,23.392 34.18,16.392 -0.067,-0.114 -22.108,-13.349 -25.633,-16.623 -3.613,-3.355 -9.535,-6.262 -9.48,-11.648 0.048,-4.549 -0.873,-15.466 -1.529,-20.101 -3.491,-24.695 -1.315,-54.529 -4.463,-79.04 5.259,3.805 7.582,8.397 12.566,12.586 4.667,3.922 9.119,7.513 13.801,11.351 8.947,7.337 20.953,14.327 31.333,19.474 12.31,6.102 30.738,4.942 43.68,2.137 16.816,-3.644 20.432,-7.326 34.197,-16.615 7.897,-5.33 13.991,-23.875 17.287,-33.016 5.068,-14.055 10.997,-24.361 7.207,-39.786 -1.288,-5.244 -3.917,-14.007 -6.507,-18.645 -4.028,-7.211 -12.459,-4.861 -13.674,-11.415 -2.059,-11.118 -1.289,-8.141 -5.579,-18.622 -2.512,-6.138 -3.058,-14.201 -8.049,-17.614 0.156,7.604 15.82,38.65 4.613,34.623 -0.226,-2.944 1.042,-14.811 -3.893,-15.344 l 0.745,13.375 c -0.116,0.086 -18.721,-0.988 -21.591,-0.968 -4.698,0.035 -15.514,2.94 -20.462,4.188 -6.116,1.542 -14.322,3.063 -20.002,4.646 -4.93,1.375 -12.514,7.297 -18.271,6.645 l -5.999,-8.915 -0.527,0.355 c 0.201,-1.584 2.377,-6.422 -1.708,-4.579 -2.574,1.161 -0.074,3.515 0.814,5.971 1.423,3.937 7.094,11.2 1.24,11.106 -3.911,-0.064 -12.38,-18.94 -16.588,-20.402 l -0.67,0.322 10.977,22.87 -0.797,0.383 c -8.581,4.701 -22.756,-24.957 -24.643,-24.19 -0.796,2.58 5.866,12.213 7.233,15.558 2.974,7.267 10.103,11.961 10.412,13.23 -0.276,1.072 -9.442,8.248 -10.967,9.179 -4.731,2.892 -9.641,-5.374 -13.16,-5.677 1.571,6.592 3.962,10.021 10.324,12.313 9.311,3.354 6.971,9.097 10.804,11.833 1.033,-11.626 10.998,-18.357 19.561,-25.21 9.163,-7.332 16.928,-14.294 28.498,-17.277 25.282,-6.517 49.262,-14.869 72.624,2.792 23.861,18.041 8.311,44.302 0.346,65.65 -5.565,14.915 -4.757,17.954 -18.769,27.008 -12.597,8.14 -18.395,10.345 -33.419,12.635 -27.922,4.254 -43.087,-5.919 -64.34,-21.807 -28.112,-21.017 -30.27,-25.265 -30.067,-60.995 0.163,-28.658 -2.385,-59.094 -2.48,-88.154 -0.02,-6.399 -3.541,-38.498 9.188,-20.732 8.075,11.271 -8.184,29.824 1.194,32.627 l 2.199,-13.554 c 2.267,0.165 12.08,12.645 14.996,14.927 5.249,4.108 12.449,8.616 18.48,11.702 7.521,3.849 13.544,6.11 21.376,8.806 9.64,3.32 13.244,9.219 18.59,11.58 13.086,5.781 23.122,-17.141 30.251,-25.82 12.258,-14.925 8.619,-28.763 0.306,-44.464 8.54,-2.037 15.511,-5.105 19.218,-13.982 0.925,-2.215 3.393,-13.083 3.471,-13.195 0.839,-1.193 10.046,1.016 7.131,-6.667 l 0.066,-0.991 -6.65,-0.025 c -0.753,-1.864 -5.878,-14.315 -5.63,-14.853 2.03,-4.402 6.205,-11.285 4.731,-16.388 l -1.36,-0.578 -7.046,16.248 -8.824,-4.05 c 7.413,-5.47 3.541,-10.509 5.32,-15.074 l 0.144,-0.664 8.756,1.903 0.546,-1.381 -6.393,-4.098 0.258,-1.437 7.598,0.957 0.363,0.365 -1.497,-4.471 c 4.031,-0.332 20.157,1.648 18.658,-4.318 -2.362,-0.128 -5.955,0.933 -10.413,0.428 -2.442,-0.277 -8.859,-1.276 -10.826,-1.268 -7.052,0.027 -13.46,1.996 -19.762,4.433 -6.483,2.508 -11.519,2.06 -17.674,6.472 -3.184,2.281 -12.619,8.964 -16.055,6.308 -0.144,-0.79 4.682,-14.611 4.682,-21.202 l 0,-4.025 c 0,-17.057 -13.204,-36.14 -13.078,-48.291 28.914,-19.112 43.745,4.524 53.987,1.192 1.584,-5.46 -20.78,-11.237 -25.266,-12.307 -18.173,-4.343 -23.255,6.672 -30.158,6.479 l -3.344,-9.218 -1.331,0.437 2.549,8.924 -0.12,1.311 -17.097,3.004 -0.237,-0.984 -5.058,-19.645 -1.997,0.373 2.995,19.832 -17.662,3.312 -0.361,-0.997 -4.057,-21.705 c 2.62,-3.637 41.466,-8.349 48.439,-9.411 9.648,-1.467 15.297,-3.274 24.224,-4.968 8.49,-1.611 19.159,6.619 21.642,5.568 1.7,-4.312 -12.478,-9.363 -15.609,-10.376 -6.12,-1.98 -13.631,2.949 -19.866,4.575 -1.514,0.395 -21.752,3.133 -23.525,3.184 -3.432,0.097 -9.736,1.274 -11.875,1.188 -5.587,-0.223 -1.169,-7.467 -6.179,-7.211 l -0.55,0.148 1.964,7.347 -0.172,0.625 -18.948,4.427 -0.257,-1.171 -6.633,-21.587 c -4.27,1.018 -0.088,5.492 0.543,9.557 0.637,4.098 1.887,8.306 2.544,12.264 z"
       id="path3073"
       inkscape:connector-curvature="0" />
    <path
       style="fill:#302f2e;stroke:none"
       d="m 148.135,338.899 c 0,-3.917 -2.185,-14.028 -1.195,-16.788 0.322,-0.896 6,-12.055 6.225,-12.387 3.597,5.656 0.088,32.448 -4.025,37.225 l -0.656,0.056 -0.641,-7.577 0.292,-0.529 z m -2.697,-22.463 c -0.686,-0.899 -1.481,-11.426 -2.99,-15.126 -2.393,-5.867 1.306,-5.778 0.468,-13.043 -0.537,-4.659 -1.983,-28.985 2.201,-30.356 0.572,0.511 2.619,25.358 4.778,30.442 1.46,3.439 0.221,27.919 -4.457,28.083 z m -4.849,-22.306 c -9.913,-2.75 -9.68,-59.515 -0.13,-60.854 l 1.577,4.86 1.068,-0.346 c 0,-6.297 -2.137,-9.438 -6.67,-12.652 l -18.335,31.389 -1.186,0.168 -25.5834,2.162 -0.3363,0.479 14.2227,4.605 0.16,-0.497 c 0.73,1.773 -2.489,7.758 -2.348,10.905 0.243,5.345 -0.825,7.052 0.225,13.856 2.721,17.631 13.318,15.594 11.145,8.187 l -2.936,2.098 c -8.72,-4.657 -5.329,-26.11 -2.026,-32.998 2.629,-5.482 8.828,-4.691 12.888,-9.245 1.71,-1.919 7.368,-12.856 8.626,-13.039 0.455,0.624 -1.269,17.271 -1.397,19.764 -0.428,8.328 -3.312,8.893 -7.239,15.901 -4.408,7.861 -1.098,38.948 6.588,32.159 -0.414,-2.278 -5.919,-3.413 -5.919,-16.399 l 0,-7.546 c 0,-5.523 3.579,-10.879 5.833,-14.888 0.076,0.075 11.928,37.134 12.286,40.031 1.853,15.036 5.071,30.705 2.68,45.961 -1.288,8.218 0.635,14.947 -10.743,14.453 -1.337,-0.058 -16.737,-5.451 -19.886,-6.309 -7.336,-1.997 -40.8714,-4.893 -47.4853,-3.259 -7.7475,1.914 -6.6888,12.597 -6.7826,18.539 -0.0939,6.014 -2.7307,18.967 -1.0968,23.492 1.2679,3.513 23.5503,19.426 28.6064,24.207 10.0623,9.512 28.0993,9.307 40.1823,3.223 13.633,-6.864 29.452,-7.94 44.194,-6.612 -5.795,-11.34 -42.328,4.626 -50.803,5.031 -8.301,0.398 -17.054,5.215 -26.515,-0.653 -6.009,-3.727 -11.7056,-10.466 -17.5566,-14.638 -5.8737,-4.188 -16.7285,-7.759 -15.2598,-15.768 1.9654,-10.72 -1.2964,-17.115 2.6522,-28.639 2.6225,-7.655 19.3724,-3.822 26.1182,-3.27 9.2531,0.756 17.779,-0.721 27.582,2.56 4.907,1.642 20.48,7.747 24.334,5.839 7.034,-3.483 5.549,-14.989 8.55,-21.532 9.656,-21.051 9.501,-29.59 6.959,-52.76 -2.074,-18.907 -7.523,-34.583 -7.525,-54.495 -0.002,-17.239 3.81,-38.488 8.281,-55.188 8.181,-30.564 28.61,-56.213 55.125,-73.159 25.916,-16.562 73.979,-5.272 99.156,9.13 24.113,13.792 49.842,43.631 58.884,69.893 7.259,21.08 6.061,34.828 6.842,56.453 0.489,13.585 7.258,12.076 11.162,21.261 1.929,4.537 0.963,23.371 5.361,24.679 3.06,-4.596 -1.707,-26 -5.992,-32.239 -7.96,-11.59 -6.332,-18.214 -6.729,-31.633 -0.789,-26.693 -4.157,-39.241 -17.959,-61.891 -23.049,-37.825 -51.506,-57.667 -95.297,-66.114 -23.593,-4.552 -44.789,-3.252 -63.932,12.03 -15.511,12.383 -29.173,24.324 -38.725,42.262 -9.094,17.077 -16.082,42.47 -18.213,61.684 -2.769,24.986 -10.856,43.83 -6.682,69.362 z"
       id="path3075"
       inkscape:connector-curvature="0" />
    <path
       style="fill:#302f2e;stroke:none"
       d="m 301.847,618.974 1.265,0.088 c 1.471,1.878 1.556,4.295 -1.092,5.101 l -1.502,-2.033 1.329,-3.156 z m 31.516,19.885 c -1.002,0.681 -11.389,2.77 -11.989,0.291 -0.065,-0.266 0.83,-11.232 0.826,-13.012 -0.011,-5.107 -7.498,-18.156 -2.228,-24.854 2.254,-2.863 7.751,-6.87 7.806,-0.881 0.064,6.94 1.937,6.88 2.71,11.951 0.464,3.041 3.3,25.379 2.875,26.505 z m 5.486,-0.146 c -1.998,-3.183 -4.494,-19.307 -5.249,-24.034 -1.106,-6.921 -5.758,-19.382 1.874,-20.161 6.656,-0.68 5.388,16.154 6.859,21.024 1.154,3.82 1.586,8.036 2.904,11.683 0.985,2.722 4.685,6.572 4.387,9.178 l 0.14,0.584 -10.915,1.726 z m 24.456,-7.249 c -13.883,16.576 -20.882,-29.024 -20.273,-35.615 0.172,-1.866 6.01,-6.632 8.992,-0.06 1.065,2.346 3.37,8.651 4.267,11.327 1.174,3.5 7.285,22.115 7.014,24.348 z m 5.829,-1.533 c -2.065,-1.387 -8.27,-22.076 -9.898,-26.262 -1.472,-3.789 -4.708,-8.672 -5.001,-12.92 -0.226,-3.263 8.55,-6.086 11.058,-2.695 1.567,2.121 9.38,20.649 11.337,24.881 1.239,2.677 6.746,9.443 4.591,11.774 -0.904,0.978 -10.839,5.166 -12.087,5.222 z m 5.868,-50.078 c 9.106,-1.348 12.507,13.606 13.394,19.806 1.559,10.9 11.766,17.748 0.326,20.692 -3.678,0.947 -12.23,-16.159 -13.74,-19.853 -3.062,-7.487 -11.393,-18.955 0.02,-20.645 z m 24.146,32.784 c -8.536,-5.008 -5.388,-16.866 -9.592,-25.205 -1.874,-3.717 -4.841,-7.032 -8.099,-9.584 -4.614,-3.614 4.483,-6.698 6.062,-6.078 0.606,0.238 10.191,20.198 11.763,23.04 5.87,10.614 13.892,9.378 -0.134,17.827 z m 50.807,-3.608 c -5.386,-5.411 -11.635,-17.632 -17.084,-24.669 -8.063,-10.41 -11.122,-12.745 -22.441,-19.31 -11.699,-6.789 -17.572,-9.106 -27.19,1.914 -3.589,4.113 -19.609,15.357 -24.964,17.291 -5.223,1.884 -9.873,3.478 -15.121,5.503 -6.074,2.343 -10.682,0.139 -17.852,3.274 -9.924,4.339 -5.673,5.092 -10.184,10.584 -3.876,4.72 -6.879,-5.639 -13.242,3.751 -5.471,8.07 -9.436,22.193 -9.933,31.767 -0.15,2.88 -1.502,36.872 8.439,29.597 0.026,-0.874 -3.012,-5.747 -3.629,-7.614 -1.639,-4.952 -0.504,-5.046 -0.998,-9.534 -1.846,-16.763 12.235,-2.324 1.231,-13.077 l 0.572,-6.112 4.165,0.538 c 0.778,-1.139 5.096,-12.039 4.173,-13.617 -1.495,-2.555 -3.99,-1.861 -2.138,-5.98 0.864,-1.921 2.873,-4.772 5.04,-4.501 0.789,1.098 1.302,13.328 1.46,15.684 0.48,7.136 -2.838,9.521 -3.586,14.165 l -0.344,0.526 6.974,4.547 0.83,-1.244 -3.075,-3.24 c 0.319,-4.894 3.431,-5.493 2.95,-13.522 -0.252,-4.211 -1.797,-11.848 -0.878,-15.715 1.27,0.558 5.548,14.578 5.599,17.087 0.113,5.538 -4.487,16.828 -1.293,18.93 0.739,0.056 6.62,-2.336 10.439,-2.639 7.757,-0.615 7.54,1.395 11.151,1.584 10.393,-6.594 7.595,-2.764 17.254,-2.3 3.014,-2.056 -0.195,-2.619 5.267,-5.375 6.411,-3.236 3.223,-0.326 7.672,-0.419 6.753,-6.363 20.774,-12.678 29.533,-19.215 3.792,-2.829 10.206,-8.628 14.25,-10.399 2.379,-1.042 6.529,-1.894 7.406,-4.622 2.705,-8.405 -1.823,-0.724 4.14,-7.511 0.549,-5.218 -8.271,-7.915 -12.017,-11.08 -4.077,-3.444 -6.046,-15.428 -8.856,-13.78 -3.715,1.004 2.595,12.048 4.072,14.037 3.058,4.121 8.248,7.009 11.063,10.534 -0.873,3.276 -5.063,8.105 -9.619,5.668 -2.971,-1.587 -6.695,-7.002 -8.021,-10.127 -1.892,-4.458 -4.436,-8.096 -5.872,-12.238 -3.961,-11.422 -0.027,-4.607 -7.623,-10.74 7.96,-8.096 11.521,-1.174 20.212,1.672 7.458,2.442 12.028,8.344 17.53,13.156 7.854,6.87 22.765,37.328 23.204,37.663 7.647,1.15 10.164,-32.117 9.83,-38.05 -0.395,-7.01 0.67,-13.34 -0.341,-20.766 -0.712,-5.238 -1.006,-14.57 -1.5,-20.605 -1.35,-16.459 -3.259,1.804 -1.789,4.772 2.287,4.616 -0.681,15.134 0.002,21.178 0.773,6.849 -1.759,36.684 -4.868,42.579 z"
       id="path3077"
       inkscape:connector-curvature="0" />
    <path
       style="fill:#302f2e;stroke:none"
       d="m 444.421,292.621 c 9.782,-2.027 12.041,18.569 13.323,25.735 2.939,16.422 4.229,17.386 2.226,34.582 -1.232,10.581 -3.803,21.665 -14.431,26.316 -10.652,4.662 -20.221,8.43 -32.102,6.714 -16.161,-2.335 -6.738,-9.241 -12.805,-25.915 -3.068,-8.43 -7.498,-23.933 -1.382,-31.637 9.34,-11.765 30.229,-32.698 45.171,-35.795 z m -47.788,12.575 c -4.308,1.6 -1.453,11.068 -4.174,13.965 -1.764,1.876 -13.557,1.795 -14.088,1.98 l -0.554,0.288 2.346,3.76 c 0.323,0.038 17.575,-2.999 11.771,3.981 l -0.097,0.494 -11.342,-2.185 -0.132,0.684 c -1.619,6.041 14.404,3.358 10.343,9.966 l -12.199,-2.638 -0.155,0.722 c -2.195,6.713 10.813,1.18 13.096,8.376 1.808,5.705 3.226,11.444 4.907,17.225 5.984,20.576 2.016,17.631 -6.86,32.324 -8.482,14.046 -9.647,13.946 -11.135,30.84 -0.626,7.111 2.442,12.119 3.553,18.211 0.891,4.885 -3.659,16.522 1.138,19.457 6.234,-4.255 0.469,-34.095 1.602,-43.168 1.051,-8.396 13.887,-21.024 17.01,-33.293 11.479,2.762 18.184,6.908 31.424,3.761 9.267,-2.202 18.68,-4.837 23.683,-13.546 11.977,-20.847 9.151,-38.96 4.371,-61.263 -6.704,-31.269 -7.944,-35.046 -36.604,-17.247 -6.925,4.3 -13.823,11.954 -19.179,18.054 -16.218,18.464 -3.822,-5.026 -8.725,-10.748 z"
       id="path3079"
       inkscape:connector-curvature="0" />
    <path
       style="fill:#302f2e;stroke:none"
       d="m 169.262,352.481 c 3.981,-0.346 5.212,-4.749 12.194,-4.123 7.428,0.665 6.414,-7.625 11.043,-5.531 1.856,4.092 -12.469,10.837 -16.284,11.577 -5.207,1.011 -13.349,13.746 -11.481,16.689 5.765,-3.701 3.584,-9.867 15.04,-13.13 7.844,-2.234 13.532,-10.046 17.759,-10.635 l 3.613,3.57 0.137,0.492 -4.318,1.631 c -1.782,6.343 -17.668,9.454 -16.153,15.049 l 17.754,-10.156 0.305,0.617 13.787,12.371 1.116,-1.071 -12.502,-15.279 0.991,-1.175 9.257,4.592 0.326,-0.659 c 0.306,-3.293 -7.256,-7.007 -9.745,-8.995 -2.426,-1.939 -6.048,-10.716 -8.748,-10.045 -5.587,1.387 -7.417,5.717 -13.02,5.797 -4.041,0.057 -11.025,4.417 -11.071,8.414 z"
       id="path3081"
       inkscape:connector-curvature="0" />
    <path
       style="fill:#302f2e;stroke:none"
       d="m 402.67,445.543 c 0.518,1.754 7.252,4.398 9.451,6.141 4.835,3.833 4.315,3.731 8.263,7.836 5.821,6.049 10.022,10.292 15.414,16.78 5.676,6.832 8.82,10.4 13.608,18.083 2.498,4.011 7.591,20.323 12.27,19.235 2.284,-14.543 -46.425,-77.349 -59.006,-68.075 z"
       id="path3083"
       inkscape:connector-curvature="0" />
    <path
       style="fill:#302f2e;stroke:none"
       d="m 152.158,392.222 c -2.172,1.435 3.222,5.825 4.595,9.987 1.444,4.375 5.193,4.145 8.417,8.692 6.098,8.603 10.899,9.788 18.46,15.244 4.234,3.053 15.135,11.582 18.625,15.078 3.183,3.188 13.59,18.731 17.545,13.428 3.379,-4.53 -3.142,-2.148 -6.422,-6.436 -3.081,-4.028 -3.84,-5.66 -7.783,-9.326 -2.36,-2.193 -16.323,-13.713 -18.585,-15.119 -4.283,-2.663 -16.839,-10.729 -19.343,-14.359 -2.88,-4.173 -4.947,-4.529 -8.22,-8.382 -1.889,-2.223 -5.718,-9.845 -7.289,-8.807 z"
       id="path3085"
       inkscape:connector-curvature="0" />
    <path
       style="fill:#302f2e;stroke:none"
       d="m 427.974,274.323 c 7.043,-0.65 -1.048,-22.674 -0.979,-25.42 l 12.691,-2.789 c 0.691,-8.116 -15.322,-4.728 -20.594,-5.622 -2.606,-0.444 -23.475,-8.857 -13.233,0.141 6.073,5.334 12.611,3.566 16.719,10.951 4.195,7.541 4.406,21.352 5.396,22.739 z"
       id="path3087"
       inkscape:connector-curvature="0" />
    <path
       style="fill:#302f2e;stroke:none"
       d="m 441.906,298.657 c -10.191,4.534 -46.353,54.541 -33.543,51.184 0.138,-0.037 14.561,-24.652 17.459,-28.031 0.852,-0.995 24.308,-26.813 16.084,-23.153 z"
       id="path3089"
       inkscape:connector-curvature="0" />
    <path
       style="fill:#302f2e;stroke:none"
       d="m 67.1459,384.172 c 4.5285,0.049 1.6505,-2.245 6.0994,-2.955 2.6962,-0.43 5.9735,0.081 9.1663,-0.391 4.9183,-0.727 12.2689,-1.619 17.2811,-1.613 4.9573,0.006 11.6203,0.515 16.4603,1.73 2.666,0.67 12.182,5.145 13.507,5.021 1.702,-7.063 -26.166,-10.493 -30.6637,-11.046 -5.8332,-0.715 -11.9409,0.963 -17.9333,1.541 -7.3329,0.707 -13.9848,-0.716 -13.9171,7.713 z"
       id="path3091"
       inkscape:connector-curvature="0" />
    <path
       style="fill:#302f2e;stroke:none"
       d="m 93.3342,305.165 c -4.0365,2.842 -8.9833,1.529 -10.761,7.975 -1.3653,4.955 5.6004,9.157 9.2222,9.159 -0.1949,-2.209 -15.4059,-11.773 3.8797,-13.717 l 4.8709,2.221 0.432,-0.95 c 0.66,-2.253 -3.7736,-5.231 -5.2553,-8.585 -1.0505,-2.378 -3.4437,-7.961 -4.6913,-9.91 -4.1364,-6.457 3.1204,-14.068 7.6904,-18.629 3.4552,-3.448 -0.7414,-3.894 -5.2497,1.448 -2.291,2.714 -4.4465,5.348 -6.0638,8.524 -3.8963,7.651 5.4875,15.398 5.9259,22.464 z"
       id="path3093"
       inkscape:connector-curvature="0" />
    <path
       style="fill:#302f2e;stroke:none"
       d="m 384.56,235.275 c -4.888,4.889 10.119,18.62 12.954,21.756 0.823,0.91 7.541,9.487 7.926,10.182 1.623,2.925 -1.311,17.159 3.492,11.175 5.863,-7.306 -3.536,-18.734 -8.096,-24.177 -2.698,-3.219 -6.393,-6.172 -8.839,-9.269 -1.36,-1.72 -5.716,-11.388 -7.437,-9.667 z"
       id="path3095"
       inkscape:connector-curvature="0" />
    <path
       style="fill:#302f2e;stroke:none"
       d="m 334.811,501.938 -5.03,3.556 -2.719,-0.44 c -1.098,-3.006 1.145,-4.38 -2.363,-4.681 0.002,2.888 0.055,6.953 2.485,8.527 3.12,-0.209 4.471,-3.897 8.256,-2.666 0.789,2.424 -0.56,3.122 2.442,3.055 l -0.492,-3.192 1.01,-1.612 5.645,-0.443 -1.162,5.743 1.111,1.181 2.571,-1.678 -0.493,-0.414 1.393,-4.959 9.926,-0.1 0.508,-6.46 0,-1.005 c 0,-2.15 -1.104,-7.523 -2.805,-8.127 l -0.213,2.091 0,1.005 c 0,3.708 1.463,7.846 -1.635,11.014 l -1.886,0.053 -1.013,0.068 -2.294,-0.388 -0.564,-8.32 -2.143,-3.391 -0.071,10.34 -8.503,1.188 c -0.05,-2.382 -2.917,-14.371 -5.723,-15.044 l 3.762,15.099 z"
       id="path3097"
       inkscape:connector-curvature="0" />
    <path
       style="fill:#302f2e;stroke:none"
       d="m 397.542,243.251 c 0.238,2.619 11.585,12.927 13.689,17.164 1.821,3.665 3.333,6.704 4.327,10.766 0.643,2.63 1.731,11.565 3.024,12.636 10.281,0.345 -5.959,-37.047 -19.165,-41.921 l -1.875,1.355 z"
       id="path3099"
       inkscape:connector-curvature="0" />
    <path
       style="fill:#302f2e;stroke:none"
       d="m 456.109,488.863 c -1.006,6.762 10.58,6 15.269,9.203 3.064,2.092 15.339,8.277 17.246,3.308 -1.719,-2.728 -26.897,-12.855 -31.057,-13.533 l -1.458,1.022 z"
       id="path3101"
       inkscape:connector-curvature="0" />
    <path
       style="fill:#302f2e;stroke:none"
       d="m 160.972,598.714 c 0.971,-4.03 -1.2,-3.083 2.467,-9.089 1.328,-2.176 3.731,-6.073 4.825,-8.254 1.494,-2.975 3.754,-4.77 5.904,-7.176 0.351,-0.393 5.473,-7.223 5.583,-7.375 l -1.559,-1.075 c -5.746,1.339 -11.107,10.122 -14.38,14.695 -1.727,2.413 -4.089,6.456 -5.465,9.124 -1.716,3.327 -1.61,9.908 2.625,9.15 z"
       id="path3103"
       inkscape:connector-curvature="0" />
    <path
       style="fill:#302f2e;stroke:none"
       d="m 384.4,257.307 c 0.245,2.446 8.564,10.693 10.831,14.079 3.262,4.871 3.736,16.348 8.396,14.161 4.651,-9.551 -11.411,-24.031 -17.296,-29.677 l -1.931,1.437 z"
       id="path3105"
       inkscape:connector-curvature="0" />
    <path
       style="fill:#302f2e;stroke:none"
       d="m 202.598,338.934 c 0.063,0.153 4.678,7.94 4.823,8.085 0.951,0.952 6.857,3.721 8.462,4.617 4.095,2.287 19.396,4.349 20.14,0.024 -1.191,-1.513 -12.899,0.304 -18.694,-2.979 -3.737,-2.116 -4.816,-0.948 -7.112,-4.457 -0.951,-1.454 -4.4,-5.512 -5.842,-6.405 l -1.777,1.115 z"
       id="path3107"
       inkscape:connector-curvature="0" />
    <path
       style="fill:#302f2e;stroke:none"
       d="m 117.378,343.905 c -4.949,-5.037 -7.041,-4.01 -3.746,-13.854 2.544,-7.601 10.727,-6.357 11.262,-9.12 -6.076,-4.195 -14.184,4.145 -15.007,9.4 -0.762,4.859 -2.467,6.044 -0.165,10.763 1.338,2.745 5.634,7.07 7.656,2.811 z"
       id="path3109"
       inkscape:connector-curvature="0" />
    <path
       style="fill:#302f2e;stroke:none"
       d="m 111.224,244.008 c 2.803,0.767 22.328,-21.07 21.021,-25.496 -3.225,-1.109 -8.776,9.389 -11.16,11.846 -2.006,2.067 -10.352,11.325 -9.861,13.65 z"
       id="path3111"
       inkscape:connector-curvature="0" />
    <path
       style="fill:#302f2e;stroke:none"
       d="m 353.699,300.884 c 6.509,1.644 17.111,-16.992 16.662,-20.767 l -1.391,-1.111 c -3.465,2.811 -5.265,8.07 -7.45,11.198 -2.692,3.852 -9.007,6.868 -7.821,10.68 z"
       id="path3113"
       inkscape:connector-curvature="0" />
    <path
       style="fill:#302f2e;stroke:none"
       d="m 127.004,327.831 c 0.017,4.427 3.775,7.442 7.543,9.626 2.447,-1.306 5.793,0.267 5.422,-4.034 -4.785,0.988 -6.628,1.516 -9.92,-3.547 l -0.402,-0.302 2.818,-4.096 c -2.012,-1.438 -4.168,0.4 -5.461,2.353 z"
       id="path3115"
       inkscape:connector-curvature="0" />
    <path
       style="fill:#302f2e;stroke:none"
       d="m 259.671,342.558 2.786,-0.506 c 1.743,-4.017 6.449,-7.985 5.536,-10.331 -3.291,-1.222 -10.204,6.011 -8.322,10.837 z"
       id="path3117"
       inkscape:connector-curvature="0" />
    <path
       style="fill:#302f2e;stroke:none"
       d="m 129.361,347.218 c -1.077,3.825 3.781,2.132 6.359,2.926 l 4.513,-3.227 -0.265,-0.802 -10.607,1.103 z"
       id="path3119"
       inkscape:connector-curvature="0" />
    <path
       style="fill:#302f2e;stroke:none"
       d="m 250.254,196.852 1.003,0.193 0,-3.522 c 0,-1.814 -3.55,-10.345 -6.226,-10.493 l 5.223,13.822 z"
       id="path3121"
       inkscape:connector-curvature="0" />
    <path
       style="fill:#302f2e;stroke:none"
       d="m 426.642,281.223 c 2.123,0.673 2.688,-0.65 2.688,-2.688 0,-1.764 0.183,-1.111 -1.006,-2.097 -1.062,0.998 -2.209,3.112 -1.682,4.785 z"
       id="path3123"
       inkscape:connector-curvature="0" />
    <path
       style="fill:#302f2e;stroke:none"
       d="m 453.657,527.118 0.643,-1.679 -0.627,-0.003 -0.016,1.682 z"
       id="path3125"
       inkscape:connector-curvature="0" />
  </g>
  <path
     style="opacity:0.3;fill:#ffffff;stroke:none"
     d="m 279.43267,293.11438 c 7.57,-0.634 11.818,2.374 14.591,6.684 2.522,3.92 3.952,9.409 3.952,15.279 0,5.869 -2.34,10.686 -5.534,14.97 -3.509,4.704 -8.456,7.726 -14.941,8.233 -4.006,0.313 -7.773,-0.588 -11.055,-2.377 -4.471,-2.438 -7.63,-6.267 -9.716,-10.849 -1.252,-2.749 -2.692,-5.669 -2.19,-9.005 0.711,-4.717 4.657,-9.726 7.35,-13.138 4.802,-6.082 8.244,-9.017 17.543,-9.797 z"
     id="path3127"
     inkscape:connector-curvature="0" />
  <path
     style="opacity:0.3;fill:#ffffff;stroke:none"
     d="m 366.79867,279.75638 c 7.59,-0.053 15.029,6.08 17.807,10.379 2.53,3.913 2.371,7.639 1.251,13.401 -1.182,6.078 -1.545,10.902 -4.925,15.069 -3.446,4.247 -10.357,6.967 -16.777,7.92 -3.974,0.59 -7.365,-1.935 -9.389,-5.083 -2.642,-4.11 -5.428,-8.087 -8.294,-12.328 -1.691,-2.502 -6.325,-7.291 -5.823,-11.135 0.617,-4.729 3.109,-7.288 5.802,-10.699 4.8,-6.082 12.165,-7.468 20.348,-7.524 z"
     id="path3129"
     inkscape:connector-curvature="0" />
  <path
     style="fill:#ffffff;stroke:none"
     d="m 264.55767,322.26338 c 2.34,0.506 2.66,-4.411 3.93,-10.285 1.27,-5.874 3.011,-10.484 0.672,-10.99 -2.34,-0.506 -7.875,3.284 -9.146,9.157 -1.27,5.874 2.205,11.612 4.544,12.118 z"
     id="path3131"
     inkscape:connector-curvature="0" />
  <path
     style="fill:#ffffff;stroke:none"
     d="m 349.73967,307.57038 c 2.339,0.506 2.659,-4.411 3.929,-10.285 1.271,-5.874 3.011,-10.484 0.672,-10.99 -2.339,-0.506 -7.875,3.284 -9.145,9.158 -1.271,5.873 2.204,11.611 4.544,12.117 z"
     id="path3133"
     inkscape:connector-curvature="0" />
</svg>
