<?xml version="1.0" encoding="UTF-8" standalone="no"?>
<!-- Created with Inkscape (http://www.inkscape.org/) -->

<svg
   xmlns:dc="http://purl.org/dc/elements/1.1/"
   xmlns:cc="http://creativecommons.org/ns#"
   xmlns:rdf="http://www.w3.org/1999/02/22-rdf-syntax-ns#"
   xmlns:svg="http://www.w3.org/2000/svg"
   xmlns="http://www.w3.org/2000/svg"
   xmlns:xlink="http://www.w3.org/1999/xlink"
   xmlns:sodipodi="http://sodipodi.sourceforge.net/DTD/sodipodi-0.dtd"
   xmlns:inkscape="http://www.inkscape.org/namespaces/inkscape"
   width="673.11975"
   height="425.14798"
   id="svg2"
   sodipodi:version="0.32"
   inkscape:version="0.48.2 r9819"
   version="1.0"
   sodipodi:docname="papapishu_Baby_boy_lying.svg"
   inkscape:output_extension="org.inkscape.output.svg.inkscape"
   inkscape:export-filename="/home/matthieu/Bureau/Matthieu/Programmation/Lazarus Delphi/AncestroWeb/Resources/papapishu_Baby_boy_lying.png"
   inkscape:export-xdpi="5.0808196"
   inkscape:export-ydpi="5.0808196">
  <defs
     id="defs4">
    <linearGradient
       inkscape:collect="always"
       id="linearGradient7416">
      <stop
         style="stop-color:#daab9b;stop-opacity:1;"
         offset="0"
         id="stop7418" />
      <stop
         style="stop-color:#daab9b;stop-opacity:0;"
         offset="1"
         id="stop7420" />
    </linearGradient>
    <radialGradient
       inkscape:collect="always"
       xlink:href="#linearGradient7416"
       id="radialGradient3973"
       gradientUnits="userSpaceOnUse"
       cx="119.28571"
       cy="400.21933"
       fx="119.28571"
       fy="400.21933"
       r="52.142857" />
    <radialGradient
       inkscape:collect="always"
       xlink:href="#linearGradient7416"
       id="radialGradient3975"
       gradientUnits="userSpaceOnUse"
       cx="119.28571"
       cy="400.21933"
       fx="119.28571"
       fy="400.21933"
       r="52.142857" />
    <linearGradient
       gradientUnits="userSpaceOnUse"
       y2="546.77863"
       x2="445.02139"
       y1="269.99683"
       x1="450.17905"
       id="linearGradient4579"
       xlink:href="#linearGradient4573"
       inkscape:collect="always" />
    <linearGradient
       id="linearGradient4573">
      <stop
         id="stop4575"
         offset="0"
         style="stop-color:#d19b75;stop-opacity:1;" />
      <stop
         id="stop4577"
         offset="1"
         style="stop-color:#e8cdba;stop-opacity:0;" />
    </linearGradient>
    <linearGradient
       id="linearGradient2459">
      <stop
         style="stop-color:#d19b75;stop-opacity:1;"
         offset="0"
         id="stop2461" />
      <stop
         style="stop-color:#e8cdba;stop-opacity:0;"
         offset="1"
         id="stop2463" />
    </linearGradient>
    <linearGradient
       inkscape:collect="always"
       xlink:href="#linearGradient4573"
       id="linearGradient2457"
       x1="450.17905"
       y1="269.99683"
       x2="445.02139"
       y2="546.77863"
       gradientUnits="userSpaceOnUse" />
    <radialGradient
       r="52.142857"
       fy="400.21933"
       fx="119.28571"
       cy="400.21933"
       cx="119.28571"
       gradientUnits="userSpaceOnUse"
       id="radialGradient2455"
       xlink:href="#linearGradient7416"
       inkscape:collect="always" />
    <radialGradient
       r="52.142857"
       fy="400.21933"
       fx="119.28571"
       cy="400.21933"
       cx="119.28571"
       gradientUnits="userSpaceOnUse"
       id="radialGradient2453"
       xlink:href="#linearGradient7416"
       inkscape:collect="always" />
    <linearGradient
       inkscape:collect="always"
       xlink:href="#linearGradient4573"
       id="linearGradient2569"
       gradientUnits="userSpaceOnUse"
       x1="450.17905"
       y1="269.99683"
       x2="445.02139"
       y2="546.77863" />
  </defs>
  <sodipodi:namedview
     id="base"
     pagecolor="#ffffff"
     bordercolor="#666666"
     borderopacity="1.0"
     gridtolerance="1"
     guidetolerance="10"
     objecttolerance="10"
     inkscape:pageopacity="0.0"
     inkscape:pageshadow="2"
     inkscape:zoom="0.51356421"
     inkscape:cx="157.43006"
     inkscape:cy="175.76869"
     inkscape:document-units="px"
     inkscape:current-layer="layer4"
     inkscape:window-width="1280"
     inkscape:window-height="923"
     inkscape:window-x="88"
     inkscape:window-y="96"
     width="750px"
     height="750px"
     borderlayer="true"
     showgrid="false"
     inkscape:grid-bbox="false"
     inkscape:window-maximized="0">
    <inkscape:grid
       id="GridFromPre046Settings"
       type="xygrid"
       originx="0px"
       originy="0px"
       spacingx="10px"
       spacingy="10px"
       color="#0000ff"
       empcolor="#0000ff"
       opacity="0.2"
       empopacity="0.4"
       empspacing="5" />
  </sodipodi:namedview>
  <metadata
     id="metadata7">
    <rdf:RDF>
      <cc:Work
         rdf:about="">
        <dc:format>image/svg+xml</dc:format>
        <dc:type
           rdf:resource="http://purl.org/dc/dcmitype/StillImage" />
        <dc:title></dc:title>
      </cc:Work>
    </rdf:RDF>
  </metadata>
  <g
     inkscape:groupmode="layer"
     id="layer4"
     inkscape:label="najwyz"
     transform="translate(64.849842,-148.35516)"
     style="opacity:1">
    <g
       id="g2537"
       transform="matrix(-1.0750139e-2,-0.9999422,0.9999422,-1.0750139e-2,-89.254743,638.71389)">
      <path
         style="fill:#000000;fill-opacity:1;fill-rule:evenodd;stroke:#000000;stroke-width:1.09768522px;stroke-linecap:butt;stroke-linejoin:miter;stroke-opacity:1"
         d="M 59.461373,586.19407 C 66.315476,648.34083 86.724612,675.25066 107.88725,687.18068 C 129.04989,699.11071 160.60406,705.01051 224.8582,688.65037 C 188.25053,679.03959 183.31077,677.04732 150.29165,645.39911 C 137.21633,616.09062 140.16392,587.51044 167.43695,560.03596 L 59.461373,586.19407 z "
         id="path3351"
         sodipodi:nodetypes="cscccc" />
      <g
         transform="matrix(1.0115776,0,0,0.7928748,-0.6813223,124.34303)"
         id="g4324">
        <path
           sodipodi:nodetypes="ccsscc"
           id="path4322"
           d="M 308.84526,539.44567 C 304.00576,454.75002 278.82153,356.30051 221.83959,292.46183 C 195.76813,280.14855 172.54094,280.95229 143.25382,286.84856 C 114.40036,292.65753 92.512244,328.00178 75.894593,394.904 C 54.788158,479.87794 60.458103,599.78831 60.458103,599.78831 C 156.3182,563.66253 242.58004,557.30849 308.84526,539.44567 z "
           style="fill:#000000;fill-opacity:1;fill-rule:evenodd;stroke:#000000;stroke-width:1.02777231px;stroke-linecap:butt;stroke-linejoin:miter;stroke-opacity:1" />
        <path
           style="fill:#87cdde;fill-opacity:1;fill-rule:evenodd;stroke:#000000;stroke-width:1px;stroke-linecap:butt;stroke-linejoin:miter;stroke-opacity:1"
           d="M 178.86701,591.09027 C 174.15828,508.68325 149.65457,412.89403 94.212394,350.78039 C 68.845431,338.79984 46.245878,339.58186 17.750161,345.3188 C -10.32363,350.9708 -31.620285,385.35998 -47.788896,450.45438 C -68.324996,533.13217 -62.808263,649.80234 -62.808263,649.80234 C 30.461516,614.65274 114.3924,608.4704 178.86701,591.09027 z "
           id="path2370"
           transform="translate(126.13021,-52.896583)"
           sodipodi:nodetypes="ccsscc" />
      </g>
      <path
         style="fill:#000000;fill-opacity:1;fill-rule:evenodd;stroke:none;stroke-width:1px;stroke-linecap:butt;stroke-linejoin:miter;stroke-opacity:1"
         d="M 114.03214,484.20458 C 127.30309,516.20271 141.59275,565.33687 214.34442,575.78534 C 246.714,580.43421 277.54054,584.44465 321.28316,565.53332 C 361.46802,548.16013 329.66847,481.55247 301.97887,482.3369 C 268.30756,483.29078 258.29953,477.67261 237.51597,464.39639 C 232.55527,446.34702 210.22207,417.56789 187.82701,404.65462 C 151.94899,383.96689 129.69604,394.76345 115.13635,412.81853 C 100.50386,430.96391 104.6673,461.62461 114.03214,484.20458 z "
         id="path3343"
         sodipodi:nodetypes="cssscsss" />
      <g
         transform="matrix(0.8118106,-0.5839209,0.5839209,0.8118106,-229.64475,279.38451)"
         id="g2360">
        <path
           sodipodi:nodetypes="cscscsssssc"
           id="path14684"
           d="M 348.2968,485.80775 C 363.73829,485.6378 387.36595,487.27958 386.81053,503.42505 C 386.25698,519.51628 380.66478,518.75989 372.32479,520.52746 C 380.97712,521.74919 386.50957,521.17636 385.73296,537.62987 C 385.00445,553.0643 370.11917,550.58544 364.3798,550.47408 C 374.37281,554.61108 376.33476,559.00858 376.22786,566.92245 C 376.07367,578.01067 356.70233,584.75101 326.55017,581.82661 C 301.95522,579.44119 273.86783,563.54133 275.0482,514.78213 C 275.79381,483.98254 290.28524,462.65724 324.48856,456.45951 C 341.75288,453.33117 364.45865,454.83933 370.13772,461.50396 C 379.35409,472.31977 366.78043,482.68472 348.2968,485.80775 z "
           style="fill:#000000;fill-opacity:1;fill-rule:evenodd;stroke:none;stroke-width:1.04255092px;stroke-linecap:butt;stroke-linejoin:miter;stroke-opacity:1" />
        <path
           style="fill:#e8cdba;fill-opacity:1;fill-rule:evenodd;stroke:none;stroke-width:1px;stroke-linecap:butt;stroke-linejoin:miter;stroke-opacity:1"
           d="M 334.95191,488.70284 C 351.76882,488.53983 381.63231,487.63442 382.69683,503.09172 C 384.31316,526.23455 362.01546,518.52145 341.4923,520.7508 C 365.37432,525.21956 384.37824,518.52932 381.38875,538.40988 C 378.62507,556.78876 354.66576,546.06485 340.18423,548.22048 C 354.10381,551.66806 372.13207,552.95625 372.23219,565.87956 C 372.32673,578.08432 352.00351,582.05238 325.14131,578.30632 C 302.33689,575.12614 278.24377,566.34177 278.05043,517.4806 C 277.9335,487.92966 290.48096,464.65749 322.52515,459.92508 C 336.47139,457.86544 352.19223,454.95709 365.03775,463.19528 C 378.70675,471.96159 356.42923,484.45258 334.95191,488.70284 z "
           id="path14682"
           sodipodi:nodetypes="cscscsssssc" />
      </g>
      <path
         sodipodi:nodetypes="ccscscscsss"
         id="path14678"
         d="M 327.24263,683.88032 C 305.78445,664.83125 308.75709,630.40516 342.47756,592.6076 C 364.19332,569.26724 395.10818,515.31553 418.3936,533.3869 C 432.43473,544.28396 425.28238,553.44339 421.19878,559.61428 C 426.2241,555.1109 432.56551,545.8463 445.2093,556.74362 C 458.46546,568.1687 450.04707,574.2745 445.6419,579.52043 C 449.98663,576.09786 461.70136,573.49695 469.4544,579.24607 C 481.55663,588.22025 471.14212,601.63367 467.55064,604.65284 C 471.70997,603.23474 477.22858,602.06707 480.40496,609.61617 C 486.68962,624.55251 486.73629,624.09001 455.88864,650.95165 C 416.82117,684.97097 356.79815,710.11764 327.24263,683.88032 z "
         style="fill:#000000;fill-opacity:1;fill-rule:evenodd;stroke:none;stroke-width:1.04528022px;stroke-linecap:butt;stroke-linejoin:miter;stroke-opacity:1" />
      <g
         inkscape:label="Layer 1"
         id="layer1"
         transform="matrix(0.7927238,0.1646753,-0.1404015,0.675873,105.21899,-118.12742)">
        <g
           id="g4581"
           transform="translate(-178.797,-110.1066)">
          <path
             style="fill:#e8cdba;fill-opacity:1"
             d="M 417.99222,824.31946 C 365.69644,816.60711 321.24382,781.66137 291.57909,739.21357 C 260.70596,695.31594 244.63398,642.21682 241.1678,588.95814 C 234.7463,578.71828 218.83858,577.30128 217.20105,562.90187 C 213.47202,552.28007 214.56345,539.78967 217.38366,528.92991 C 219.31145,513.81661 237.27013,510.78214 245.89162,506.17791 C 258.39543,441.80222 290.87511,378.71906 345.42807,340.35369 C 372.42934,320.52808 405.29857,308.68843 438.89921,308.29527 C 445.90719,306.28652 460.46362,311.47047 461.18546,301.32642 C 458.75819,294.25851 459.80795,286.0817 464.24766,281.55029 C 453.86372,275.5684 450.78997,260.48956 464.69432,256.35855 C 480.46844,251.22981 480.41811,274.06642 489.153,282.14534 C 492.81019,294.36079 473.92759,296.04193 481.71409,309.17392 C 487.76129,317.2857 505.27105,316.67303 514.7719,323.91575 C 567.8715,349.34341 606.37634,398.75896 626.8988,453.08422 C 634.77913,473.56056 640.37828,494.90111 643.7477,516.57694 C 656.58943,516.24565 675.3262,520.61494 675.02734,536.69956 C 675.92578,553.09783 674.12895,571.30187 663.43944,584.47011 C 657.42517,592.30629 643.0186,588.6776 645.90125,601.42474 C 639.00356,664.59883 614.46563,727.63164 568.31866,772.50749 C 536.35567,804.47694 492.77046,826.55415 446.84692,825.80064 C 437.20984,825.90487 427.57252,825.34644 417.99222,824.31946 z "
             id="path3686" />
          <path
             id="path1912"
             d="M 417.99222,824.31946 C 365.69644,816.60711 321.24382,781.66137 291.57909,739.21357 C 260.70596,695.31594 244.63398,642.21682 241.1678,588.95814 C 234.7463,578.71828 218.83858,577.30128 217.20105,562.90187 C 213.47202,552.28007 214.56345,539.78967 217.38366,528.92991 C 219.31145,513.81661 237.27013,510.78214 245.89162,506.17791 C 258.39543,441.80222 290.87511,378.71906 345.42807,340.35369 C 372.42934,320.52808 405.29857,308.68843 438.89921,308.29527 C 445.90719,306.28652 460.46362,311.47047 461.18546,301.32642 C 458.75819,294.25851 459.80795,286.0817 464.24766,281.55029 C 453.86372,275.5684 450.78997,260.48956 464.69432,256.35855 C 480.46844,251.22981 480.41811,274.06642 489.153,282.14534 C 492.81019,294.36079 473.92759,296.04193 481.71409,309.17392 C 487.76129,317.2857 505.27105,316.67303 514.7719,323.91575 C 567.8715,349.34341 606.37634,398.75896 626.8988,453.08422 C 634.77913,473.56056 640.37828,494.90111 643.7477,516.57694 C 656.58943,516.24565 675.3262,520.61494 675.02734,536.69956 C 675.92578,553.09783 674.12895,571.30187 663.43944,584.47011 C 657.42517,592.30629 643.0186,588.6776 645.90125,601.42474 C 639.00356,664.59883 614.46563,727.63164 568.31866,772.50749 C 536.35567,804.47694 492.77046,826.55415 446.84692,825.80064 C 437.20984,825.90487 427.57252,825.34644 417.99222,824.31946 z "
             style="fill:url(#linearGradient2569);fill-opacity:1" />
          <path
             id="path1882"
             d="M 417.99222,824.31946 C 365.69644,816.60711 321.24382,781.66137 291.57909,739.21357 C 260.70596,695.31594 244.63398,642.21682 241.1678,588.95814 C 234.7463,578.71828 218.83858,577.30128 217.20105,562.90187 C 213.47202,552.28007 214.56345,539.78967 217.38366,528.92991 C 219.31145,513.81661 237.27013,510.78214 245.89162,506.17791 C 258.39543,441.80222 290.87511,378.71906 345.42807,340.35369 C 372.42934,320.52808 405.29857,308.68843 438.89921,308.29527 C 445.90719,306.28652 460.46362,311.47047 461.18546,301.32642 C 458.75819,294.25851 459.80795,286.0817 464.24766,281.55029 C 453.86372,275.5684 450.78997,260.48956 464.69432,256.35855 C 480.46844,251.22981 480.41811,274.06642 489.153,282.14534 C 492.81019,294.36079 473.92759,296.04193 481.71409,309.17392 C 487.76129,317.2857 505.27105,316.67303 514.7719,323.91575 C 567.8715,349.34341 606.37634,398.75896 626.8988,453.08422 C 634.77913,473.56056 640.37828,494.90111 643.7477,516.57694 C 656.58943,516.24565 675.3262,520.61494 675.02734,536.69956 C 675.92578,553.09783 674.12895,571.30187 663.43944,584.47011 C 657.42517,592.30629 643.0186,588.6776 645.90125,601.42474 C 639.00356,664.59883 614.46563,727.63164 568.31866,772.50749 C 536.35567,804.47694 492.77046,826.55415 446.84692,825.80064 C 437.20984,825.90487 427.57252,825.34644 417.99222,824.31946 z M 470.09247,819.54889 C 522.89632,811.44135 567.48775,775.30513 596.30351,731.63963 C 623.42783,690.51173 638.0083,642.0127 642.50378,593.19061 C 644.61121,583.53132 663.00837,587.21733 665.09812,574.36918 C 670.04793,563.64902 670.78192,551.48032 671.42484,539.89356 C 671.57973,525.6605 657.13765,520.49617 645.21186,521.04697 C 634.11871,518.57985 639.42808,504.36079 635.40319,496.40141 C 621.56962,434.77447 587.93623,375.28179 534.3864,339.99002 C 518.18534,329.45402 500.3209,321.40036 481.56366,316.6795 C 476.08047,325.61248 460.3638,321.01674 458.03478,331.98041 C 445.70573,343.91778 435.00173,322.24433 444.43927,312.45153 C 436.44453,311.19461 427.44065,313.53222 419.12777,314.42532 C 369.50458,321.81476 326.57759,353.80971 297.84598,393.90697 C 276.54746,423.41562 262.0357,457.52061 253.22347,492.68268 C 252.67925,504.20618 248.75057,516.45789 235.24627,514.98746 C 219.27377,521.76897 217.2869,542.30277 220.21626,557.25516 C 220.78083,574.3877 241.4176,575.7179 246.48383,588.97703 C 245.80208,607.31836 249.91289,625.6648 253.82082,643.56218 C 267.95384,702.03171 300.42645,757.84581 350.61735,792.31115 C 385.1422,816.24624 428.50563,826.9662 470.09247,819.54889 z M 440.08258,758.09613 C 426.13459,756.4232 412.99838,751.59868 400.51447,745.33296 C 388.54888,740.61932 377.65904,734.16714 367.06388,726.93689 C 356.17053,720.28541 352.76159,707.27736 344.76707,697.93466 C 336.69942,683.31615 329.25981,667.62361 329.14816,650.524 C 326.24205,639.98877 329.8132,625.51326 326.83485,617.42256 C 315.99989,616.9752 304.26297,623.42675 294.11649,618.5061 C 288.74455,608.68032 308.57793,619.13479 313.98137,615.0922 C 327.23066,613.74603 340.67577,606.25117 345.47367,593.27235 C 347.26994,587.47962 355.83626,582.33824 351.51619,592.41716 C 348.29883,605.00763 332.52866,610.10042 331.47623,623.18603 C 331.7744,635.54528 332.61811,648.00123 334.32363,660.25895 C 335.87397,672.27328 342.1694,682.41943 347.55324,692.96639 C 356.27859,708.33564 366.71571,724.6063 383.86258,731.41797 C 395.59238,738.8846 408.65816,743.37982 421.26072,748.99715 C 433.19815,751.9316 445.95174,756.16112 458.05791,751.71427 C 475.83653,745.74261 492.84495,737.62107 508.09094,726.65893 C 520.21492,720.52225 528.85339,710.46025 535.12336,698.62414 C 541.57484,687.55141 547.18263,675.84904 550.9733,663.57656 C 554.46143,649.19789 553.58321,634.0604 553.60469,619.44828 C 552.84793,608.39666 547.45191,599.02559 538.92494,592.27929 C 534.40942,589.21821 526.30455,571.6407 535.89091,581.33526 C 543.12082,591.36135 552.45707,602.17766 566.16892,600.23955 C 577.96135,600.87324 590.53687,601.02137 601.18746,595.15717 C 609.79455,600.18867 590.29902,604.68964 585.59557,604.12548 C 576.43252,606.64463 560.50502,601.40962 555.58459,607.52694 C 559.00459,622.93916 557.9376,638.91138 556.84918,654.51953 C 553.73569,677.47625 541.01885,697.67878 528.85805,716.8229 C 517.47032,728.31806 502.73717,735.78391 488.92926,743.93267 C 475.28701,750.08544 461.37961,757.21169 446.28323,758.61694 C 444.20601,758.6698 442.12001,758.51159 440.08258,758.09613 z M 629.92889,575.49359 C 630.41288,565.84562 649.28134,582.33057 649.99598,567.99462 C 654.15848,559.26266 656.77033,536.44413 643.60695,536.77211 C 639.86437,538.80618 625.79871,547.49957 632.88046,537.40997 C 643.50983,526.36289 660.83329,534.58815 657.3781,550.12279 C 657.69221,561.34381 655.45858,579.90186 640.40977,578.28873 C 636.78354,578.28877 632.87977,577.80463 629.92889,575.49359 z M 238.10008,566.06903 C 230.29053,555.5709 226.1218,540.20033 234.1956,528.88625 C 238.54507,522.70487 256.30436,530.29066 247.96222,533.59865 C 233.84934,526.42519 230.55427,548.8666 237.41705,557.20722 C 239.30848,565.60652 248.19868,561.59983 250.98098,560.55906 C 253.65702,566.69062 241.34138,570.2317 238.10008,566.06903 z M 457.892,513.54956 C 444.49687,502.50287 471.14391,485.67374 475.9163,502.0577 C 480.30798,512.33013 465.20534,522.68539 457.892,513.54956 z M 418.892,504.54959 C 405.49686,493.5029 432.14389,476.67372 436.9163,493.0577 C 441.30797,503.33013 426.20537,513.68535 418.892,504.54959 z M 498.492,481.63766 C 492.72893,475.57794 472.4969,472.35818 475.24157,465.60517 C 485.25221,466.42509 501.37925,473.61125 503.4629,482.0735 C 501.99238,483.09915 499.84144,482.6533 498.492,481.63766 z M 391.82388,475.37204 C 399.11216,464.8027 413.09453,462.29754 424.18471,457.64772 C 429.00015,467.34915 409.33651,465.6964 404.62925,472.38972 C 400.88658,474.57989 396.24225,477.3921 391.82388,475.37204 z M 453.75336,330.19958 C 454.38453,315.61929 481.85356,323.84933 477.1699,306.25609 C 474.27056,299.62523 473.85285,290.54425 483.00059,290.37356 C 490.95344,278.88253 470.69532,270.98742 471.65794,260.1929 C 459.24934,256.70711 455.00408,275.81006 468.17729,278.20252 C 471.87154,286.84464 457.46172,295.21035 466.53961,303.88305 C 464.54446,315.31431 435.60016,313.28765 447.72274,330.57146 C 449.26675,332.5778 452.40633,332.30559 453.75336,330.19958 z "
             style="fill:#000000" />
          <path
             id="path1908"
             d="M 440.08258,758.09613 C 426.13459,756.4232 412.99838,751.59868 400.51447,745.33296 C 388.54888,740.61932 377.65904,734.16714 367.06388,726.93689 C 356.17053,720.28541 352.76159,707.27736 344.76707,697.93466 C 336.69942,683.31615 329.25981,667.62361 329.14816,650.524 C 326.24205,639.98877 329.8132,625.51326 326.83485,617.42256 C 315.99989,616.9752 304.26297,623.42675 294.11649,618.5061 C 288.74455,608.68032 308.57793,619.13479 313.98137,615.0922 C 327.23066,613.74603 340.67577,606.25117 345.47367,593.27235 C 347.26994,587.47962 355.83626,582.33824 351.51619,592.41716 C 348.29883,605.00763 332.52866,610.10042 331.47623,623.18603 C 331.7744,635.54528 332.61811,648.00123 334.32363,660.25895 C 335.87397,672.27328 342.1694,682.41943 347.55324,692.96639 C 356.27859,708.33564 366.71571,724.6063 383.86258,731.41797 C 395.59238,738.8846 408.65816,743.37982 421.26072,748.99715 C 433.19815,751.9316 445.95174,756.16112 458.05791,751.71427 C 475.83653,745.74261 492.84495,737.62107 508.09094,726.65893 C 520.21492,720.52225 528.85339,710.46025 535.12336,698.62414 C 541.57484,687.55141 547.18263,675.84904 550.9733,663.57656 C 554.46143,649.19789 553.58321,634.0604 553.60469,619.44828 C 552.84793,608.39666 547.45191,599.02559 538.92494,592.27929 C 534.40942,589.21821 526.30455,571.6407 535.89091,581.33526 C 543.12082,591.36135 552.45707,602.17766 566.16892,600.23955 C 577.96135,600.87324 590.53687,601.02137 601.18746,595.15717 C 609.79455,600.18867 590.29902,604.68964 585.59557,604.12548 C 576.43252,606.64463 560.50502,601.40962 555.58459,607.52694 C 559.00459,622.93916 557.9376,638.91138 556.84918,654.51953 C 553.73569,677.47625 541.01885,697.67878 528.85805,716.8229 C 517.47032,728.31806 502.73717,735.78391 488.92926,743.93267 C 475.28701,750.08544 461.37961,757.21169 446.28323,758.61694 C 444.20601,758.6698 442.12001,758.51159 440.08258,758.09613 z "
             style="fill:#000000" />
          <path
             id="path1906"
             d="M 629.92889,575.49359 C 630.41288,565.84562 649.28134,582.33057 649.99598,567.99462 C 654.15848,559.26266 656.77033,536.44413 643.60695,536.77211 C 639.86437,538.80618 625.79871,547.49957 632.88046,537.40997 C 643.50983,526.36289 660.83329,534.58815 657.3781,550.12279 C 657.69221,561.34381 655.45858,579.90186 640.40977,578.28873 C 636.78354,578.28877 632.87977,577.80463 629.92889,575.49359 z "
             style="fill:#000000" />
          <path
             id="path1904"
             d="M 238.10008,566.06903 C 230.29053,555.5709 226.1218,540.20033 234.1956,528.88625 C 238.54507,522.70487 256.30436,530.29066 247.96222,533.59865 C 233.84934,526.42519 230.55427,548.8666 237.41705,557.20722 C 239.30848,565.60652 248.19868,561.59983 250.98098,560.55906 C 253.65702,566.69062 241.34138,570.2317 238.10008,566.06903 z "
             style="fill:#000000" />
          <path
             id="path1902"
             d="M 457.892,513.54956 C 444.49687,502.50287 471.14391,485.67374 475.9163,502.0577 C 480.30798,512.33013 465.20534,522.68539 457.892,513.54956 z "
             style="fill:#000000" />
          <path
             id="path1900"
             d="M 418.892,504.54959 C 405.49686,493.5029 432.14389,476.67372 436.9163,493.0577 C 441.30797,503.33013 426.20537,513.68535 418.892,504.54959 z "
             style="fill:#000000" />
          <path
             id="path1898"
             d="M 498.492,481.63766 C 492.72893,475.57794 472.4969,472.35818 475.24157,465.60517 C 485.25221,466.42509 501.37925,473.61125 503.4629,482.0735 C 501.99238,483.09915 499.84144,482.6533 498.492,481.63766 z "
             style="fill:#000000" />
          <path
             id="path1896"
             d="M 391.82388,475.37204 C 399.11216,464.8027 413.09453,462.29754 424.18471,457.64772 C 429.00015,467.34915 409.33651,465.6964 404.62925,472.38972 C 400.88658,474.57989 396.24225,477.3921 391.82388,475.37204 z "
             style="fill:#000000" />
          <path
             id="path1892"
             d="M 453.75336,330.19958 C 454.38453,315.61929 481.85356,323.84933 477.1699,306.25609 C 474.27056,299.62523 473.85285,290.54425 483.00059,290.37356 C 490.95344,278.88253 470.69532,270.98742 471.65794,260.1929 C 459.24934,256.70711 455.00408,275.81006 468.17729,278.20252 C 471.87154,286.84464 457.46172,295.21035 466.53961,303.88305 C 464.54446,315.31431 435.60016,313.28765 447.72274,330.57146 C 449.26675,332.5778 452.40633,332.30559 453.75336,330.19958 z "
             style="fill:#947968;fill-opacity:1" />
        </g>
      </g>
      <path
         sodipodi:nodetypes="cssscsss"
         id="path2368"
         d="M 115.18218,483.43371 C 134.16023,524.86699 155.53184,564.1012 212.12537,569.45372 C 242.55439,572.33164 274.80422,576.29563 315.89554,558.53054 C 353.64474,542.21036 321.43631,483.44666 295.41458,483.43371 C 274.66768,483.42281 270.25951,489.93567 229.87553,462.95275 C 225.2155,445.99738 227.70143,408.17889 206.66377,396.04831 C 172.96037,376.61449 149.32649,377.711 135.66313,394.6829 C 118.28968,416.26327 106.46816,464.40909 115.18218,483.43371 z "
         style="fill:#e8cdba;fill-opacity:1;fill-rule:evenodd;stroke:none;stroke-width:1px;stroke-linecap:butt;stroke-linejoin:miter;stroke-opacity:1" />
      <path
         style="fill:#000000;fill-opacity:1;fill-rule:evenodd;stroke:none;stroke-width:1px;stroke-linecap:butt;stroke-linejoin:miter;stroke-opacity:1"
         d="M 135.44846,584.7989 C 166.19798,532.51594 185.52393,523.74185 229.0872,516.04239 C 251.75831,512.03545 305.78194,520.07134 320.98807,551.05039 C 340.38677,590.57086 365.3758,633.78307 359.57166,656.48256 C 355.0189,674.28802 381.7619,694.18202 354.47543,694.19596 C 332.72017,694.20769 290.33503,692.69211 259.34094,654.64633 C 254.45441,672.88982 242.14974,684.01443 225.25395,689.47273 C 184.21613,702.73029 147.27399,701.97436 119.84797,679.17768 C 97.387977,660.5088 124.15831,603.99536 135.44846,584.7989 z "
         id="path2366"
         sodipodi:nodetypes="csssscsss" />
      <path
         sodipodi:nodetypes="csssscsss"
         id="path3341"
         d="M 149.5082,566.89076 C 173.94785,537.74605 186.33526,524.6074 230.6473,518.42187 C 261.0476,514.17828 303.50241,523.1594 318.65119,553.21306 C 337.16243,589.9375 359.68663,634.5211 354.15151,655.61783 C 349.80977,672.1661 372.11172,691.66008 346.08999,691.67303 C 325.34309,691.68393 271.64976,681.8854 258.57372,644.69466 C 253.91369,661.65003 241.48657,686.05955 218.9772,687.02196 C 182.23538,688.5929 163.01903,672.15021 150.16222,657.98096 C 131.54533,637.46365 136.0627,582.92475 149.5082,566.89076 z "
         style="fill:#e8cdba;fill-opacity:1;fill-rule:evenodd;stroke:none;stroke-width:1px;stroke-linecap:butt;stroke-linejoin:miter;stroke-opacity:1" />
      <g
         transform="translate(-39.365738,66.249656)"
         id="g2515">
        <path
           style="fill:#000000;fill-opacity:1;fill-rule:evenodd;stroke:#000000;stroke-width:0.56658572px;stroke-linecap:butt;stroke-linejoin:miter;stroke-opacity:1"
           d="M 298.35977,403.64331 C 280.48917,365.24042 248.5511,324.77835 204.63469,307.2229 C 187.555,307.05753 174.4388,312.39233 158.7716,321.39255 C 143.33639,330.2595 137.14591,351.39126 139.59342,386.09161 C 142.70205,430.16528 170.2087,479.98698 170.2087,479.98698 C 218.48772,415.80942 244.51487,412.6708 298.35977,403.64331 z "
           id="path4330"
           sodipodi:nodetypes="ccsscc" />
        <path
           sodipodi:nodetypes="ccsscc"
           id="path4332"
           d="M 295.93973,403.88217 C 278.55203,366.517 247.47698,327.14829 204.74728,310.06722 C 188.12911,309.90632 175.36733,315.09697 160.1235,323.85398 C 145.10537,332.48133 139.08217,353.04206 141.46354,386.80475 C 144.48818,429.68746 171.32938,474.19261 171.32938,474.19261 C 216.38353,407.18223 254.55261,406.54165 295.93973,403.88217 z "
           style="fill:#87cdde;fill-opacity:1;fill-rule:evenodd;stroke:#000000;stroke-width:0.55127549px;stroke-linecap:butt;stroke-linejoin:miter;stroke-opacity:1" />
      </g>
      <path
         style="fill:#e8cdba;fill-opacity:1;fill-rule:evenodd;stroke:none;stroke-width:1px;stroke-linecap:butt;stroke-linejoin:miter;stroke-opacity:1"
         d="M 329.52912,683.36472 C 309.67217,665.25586 311.74058,632.18755 344.90436,595.21462 C 365.08723,573.14716 393.96789,518.51134 417.67922,535.9651 C 433.50227,547.61234 416.05889,561.73854 412.30398,571.34034 C 421.16529,565.27853 431.64078,545.00274 446.00379,560.41539 C 457.59198,572.85044 438.02685,581.01211 431.97537,591.55888 C 442.04584,584.87621 455.52407,569.78938 469.52912,583.36472 C 483.08124,596.50102 458.17751,605.11011 450.00608,614.76316 C 462.1051,609.1837 476.78673,600.37553 479.88322,614.00335 C 482.50125,625.52544 482.15058,621.22847 450.32544,651.11843 C 414.9502,684.34262 353.19129,704.94381 329.52912,683.36472 z "
         id="path14680"
         sodipodi:nodetypes="ccscscscsss" />
      <path
         sodipodi:nodetypes="ccscc"
         transform="translate(126.13021,-52.896583)"
         id="path3349"
         d="M -59.377574,652.74693 C -51.171123,745.20579 8.9639719,757.59733 82.54593,744.18506 C 42.269541,738.47845 20.217642,720.66541 12.689466,694.05277 C 8.56342,679.46691 5.7035917,653.46861 12.931146,634.20918 L -59.377574,652.74693 z "
         style="fill:#ffffff;fill-opacity:1;fill-rule:evenodd;stroke:none;stroke-width:1px;stroke-linecap:butt;stroke-linejoin:miter;stroke-opacity:1" />
    </g>
  </g>
</svg>
