<?xml version="1.0" encoding="UTF-8" standalone="no"?>
<!-- Created with Inkscape (http://www.inkscape.org/) -->

<svg
   xmlns:dc="http://purl.org/dc/elements/1.1/"
   xmlns:cc="http://creativecommons.org/ns#"
   xmlns:rdf="http://www.w3.org/1999/02/22-rdf-syntax-ns#"
   xmlns:svg="http://www.w3.org/2000/svg"
   xmlns="http://www.w3.org/2000/svg"
   xmlns:xlink="http://www.w3.org/1999/xlink"
   xmlns:sodipodi="http://sodipodi.sourceforge.net/DTD/sodipodi-0.dtd"
   xmlns:inkscape="http://www.inkscape.org/namespaces/inkscape"
   id="svg2"
   version="1.1"
   inkscape:version="0.48.2 r9819"
   width="442.91425"
   height="435.72141"
   sodipodi:docname="Romanov_poor_musician.svg"
   inkscape:export-filename="/home/matthieu/Bureau/Matthieu/Programmation/Lazarus Delphi/AncestroWeb/Resources/Romanov_poor_musician.png"
   inkscape:export-xdpi="17.889965"
   inkscape:export-ydpi="17.889965">
  <metadata
     id="metadata8">
    <rdf:RDF>
      <cc:Work
         rdf:about="">
        <dc:format>image/svg+xml</dc:format>
        <dc:type
           rdf:resource="http://purl.org/dc/dcmitype/StillImage" />
        <dc:title></dc:title>
      </cc:Work>
    </rdf:RDF>
  </metadata>
  <defs
     id="defs6">
    <linearGradient
       gradientTransform="translate(22,-450)"
       gradientUnits="userSpaceOnUse"
       y2="867.93481"
       x2="278.11047"
       y1="867.93481"
       x1="238.14854"
       id="linearGradient3355"
       xlink:href="#linearGradient3349"
       inkscape:collect="always" />
    <radialGradient
       r="6.5407376"
       fy="642.59381"
       fx="252.61389"
       cy="642.59381"
       cx="252.61389"
       gradientTransform="matrix(2.0849224,0,0,1.6169847,-112.60958,-826.05543)"
       gradientUnits="userSpaceOnUse"
       id="radialGradient4220"
       xlink:href="#linearGradient4207"
       inkscape:collect="always" />
    <radialGradient
       r="6.5407376"
       fy="642.59381"
       fx="252.61389"
       cy="642.59381"
       cx="252.61389"
       gradientTransform="matrix(1.4324323,0,0,1.3513515,-3.15335,-654.33085)"
       gradientUnits="userSpaceOnUse"
       id="radialGradient4216"
       xlink:href="#linearGradient4207"
       inkscape:collect="always" />
    <linearGradient
       id="linearGradient4207"
       inkscape:collect="always">
      <stop
         id="stop4209"
         offset="0"
         style="stop-color:#ec7272;stop-opacity:1;" />
      <stop
         id="stop4211"
         offset="1"
         style="stop-color:#ec7272;stop-opacity:0;" />
    </linearGradient>
    <linearGradient
       id="linearGradient3349"
       inkscape:collect="always">
      <stop
         id="stop3351"
         offset="0"
         style="stop-color:#cccccc;stop-opacity:1;" />
      <stop
         id="stop3353"
         offset="1"
         style="stop-color:#cccccc;stop-opacity:0;" />
    </linearGradient>
  </defs>
  <sodipodi:namedview
     pagecolor="#ffffff"
     bordercolor="#666666"
     borderopacity="1"
     objecttolerance="10"
     gridtolerance="10"
     guidetolerance="10"
     inkscape:pageopacity="0"
     inkscape:pageshadow="2"
     inkscape:window-width="1920"
     inkscape:window-height="930"
     id="namedview4"
     showgrid="false"
     inkscape:zoom="0.87830105"
     inkscape:cx="4.2089545"
     inkscape:cy="230.63127"
     inkscape:window-x="0"
     inkscape:window-y="92"
     inkscape:window-maximized="1"
     inkscape:current-layer="a3783"
     fit-margin-top="0"
     fit-margin-left="0"
     fit-margin-right="0"
     fit-margin-bottom="0" />
  <a
     id="a3783"
     transform="translate(-66.311311,86.262948)">
    <a
       transform="matrix(17.210138,0,0,16.931243,-260.39029,-319.32563)"
       id="a3783-5">
      <path
         sodipodi:nodetypes="ccccc"
         id="rect3003"
         d="m 20.704559,14.722435 c 7.250028,-0.237404 9.601457,-0.833727 22.746327,-0.712219 L 44.465237,39.265162 22.145872,38.885553 C 18.71327,30.114235 18.381212,17.846914 20.704559,14.722435 z"
         style="fill:#00d4c9;fill-opacity:1;stroke:#00d7ff;stroke-width:0.45708367;stroke-miterlimit:2.20000005;stroke-opacity:1"
         inkscape:connector-curvature="0" />
      <path
         sodipodi:nodetypes="sssssss"
         inkscape:connector-curvature="0"
         id="rect3005"
         d="m 43.198941,14.433655 c 0.366273,-0.01809 0.09423,0.70441 0.105797,1.016992 l 0.873187,23.590929 c 0.01162,0.312579 -0.423254,0.09368 -0.789527,0.111772 -0.366274,0.01809 -0.525233,0.02355 -0.532761,-0.289104 L 42.267095,14.424112 c -0.0075,-0.312671 0.565573,0.02763 0.931843,0.0095 z"
         style="fill:#00ac9f;fill-opacity:1;stroke:none" />
    </a>
    <g
       transform="translate(-97.896994,-173.05725)"
       id="layer1"
       inkscape:label="Calque 1">
      <path
         id="path13118"
         d="m 222,443.36218 350,2"
         style="fill:none;stroke:#000000;stroke-width:2;stroke-linecap:butt;stroke-linejoin:miter;stroke-miterlimit:4;stroke-opacity:1;stroke-dasharray:none"
         inkscape:connector-curvature="0" />
      <path
         id="path13120"
         d="m 294,450.36218 208,0"
         style="fill:none;stroke:#000000;stroke-width:1px;stroke-linecap:butt;stroke-linejoin:miter;stroke-opacity:1"
         inkscape:connector-curvature="0" />
      <path
         sodipodi:nodetypes="ccccc"
         id="path13017"
         d="m 329.80369,416.51379 23.53394,4.0614 -13.1037,34.50486 -12.20706,-0.27731 1.77682,-38.28895 z"
         style="fill:#ff5555;fill-rule:evenodd;stroke:#000000;stroke-width:0.75305629px;stroke-linecap:butt;stroke-linejoin:miter;stroke-opacity:1"
         inkscape:connector-curvature="0" />
      <path
         id="path13015"
         d="m 421.53618,437.00389 -6.77751,-25.60392 18.07336,-6.7775 13.55501,25.60391 -24.85086,6.77751 z"
         style="fill:#ffffff;fill-rule:evenodd;stroke:#000000;stroke-width:0.75305629px;stroke-linecap:butt;stroke-linejoin:miter;stroke-opacity:1"
         inkscape:connector-curvature="0" />
      <path
         sodipodi:nodetypes="cccccccc"
         id="path13011"
         d="m 330.41637,363.95743 115.21761,16.56723 -4.51833,31.62837 -27.11003,16.56724 c -2.13888,-16.8512 -19.04168,-27.50727 -32.38142,-36.89976 -10.26407,7.76463 -21.96739,13.80214 -22.59169,33.13448 l -37.65282,-2.25917 c 12.70832,-19.57947 7.0598,-39.15893 9.03668,-58.73839 z"
         style="fill:#916f6f;fill-rule:evenodd;stroke:#000000;stroke-width:0.75300002;stroke-linecap:butt;stroke-linejoin:miter;stroke-miterlimit:4;stroke-opacity:1;stroke-dasharray:none"
         inkscape:connector-curvature="0" />
      <path
         style="fill:#f4d7d7;fill-opacity:1;fill-rule:evenodd;stroke:#000000;stroke-width:0.75305629px;stroke-linecap:butt;stroke-linejoin:miter;stroke-opacity:1"
         d="m 438.55922,182.91042 c -0.0441,-4.21306 -0.51954,-8.71366 5.2714,-9.03668 2.55247,0.21724 10.27287,0.7907 9.03667,12.80196 l -8.28362,22.59169 c -5.20868,7.34245 -6.6479,3.37647 -9.03667,2.25917 l 3.01222,-28.61614 z"
         id="path13055"
         sodipodi:nodetypes="cccccc"
         inkscape:connector-curvature="0" />
      <path
         sodipodi:nodetypes="cc"
         id="path8086"
         d="m 418.52396,145.56193 c -0.41978,-7.02853 2.3135,-14.05705 -1.50612,-21.08558"
         style="fill:none;stroke:#000000;stroke-width:1.29100001;stroke-linecap:butt;stroke-linejoin:miter;stroke-miterlimit:4;stroke-opacity:1;stroke-dasharray:none"
         inkscape:connector-curvature="0" />
      <path
         sodipodi:nodetypes="cc"
         id="path9061"
         d="m 351.4879,152.77619 c -5.10949,-3.31971 -9.83542,-8.55726 -15.81419,-7.53056"
         style="fill:none;stroke:#000000;stroke-width:1.29100001;stroke-linecap:butt;stroke-linejoin:miter;stroke-miterlimit:4;stroke-opacity:1;stroke-dasharray:none"
         inkscape:connector-curvature="0" />
      <path
         sodipodi:nodetypes="cccccc"
         id="path12038"
         d="m 292.0105,293.17013 c -4.30994,5.60594 -3.49673,12.14337 -14.30807,16.56724 l -24.44224,-10.13111 c -5.4537,-2.07843 -0.61831,-13.77777 16.375,-7.53668 25.16293,-1.19844 -2.02,-11.81945 14.09169,-13.94529 l 8.28362,15.04584 z"
         style="fill:#f4d7d7;fill-opacity:1;fill-rule:evenodd;stroke:#000000;stroke-width:0.75305629px;stroke-linecap:butt;stroke-linejoin:miter;stroke-opacity:1"
         inkscape:connector-curvature="0" />
      <path
         sodipodi:nodetypes="cssscccscssscc"
         id="path9066"
         d="m 466.71956,262.29483 c 6.46503,20.36866 13.77474,65.31514 0.76699,79.28628 -3.08434,3.31278 -5.47791,4.35889 -12.28158,6.8729 -17.58606,6.4982 -12.12865,17.51045 -6.30135,22.81048 9.55916,8.69422 -16.97266,18.49797 -42.80509,16.54379 -18.13283,6.12332 -98.96361,-13.62785 -82.6491,-31.83947 18.2414,-23.53912 5.90615,-26.5039 -14.87169,-35.68865 0,-20.36867 -0.98199,-56.8919 12.03497,-70.24961 6.50847,-6.67886 26.54099,-10.47391 35.66253,-8.29021 2.40842,-0.19082 -7.28039,-15.84474 -3.62276,-16.57275 3.65764,-0.72801 25.18006,9.70461 29.76645,8.97295 4.58639,-0.73167 39.01813,-10.36846 44.21281,-10.57025 5.19467,-0.2018 -7.04884,15.05586 -1.56635,15.91747 9.5076,9.84835 41.65417,2.4384 41.65417,22.80707 z"
         style="fill:#000000;fill-opacity:1;stroke:#000000;stroke-width:1.73202944;stroke-miterlimit:4;stroke-opacity:1;stroke-dashoffset:0"
         inkscape:connector-curvature="0" />
      <path
         style="fill:#f4d7d7;fill-opacity:1;fill-rule:evenodd;stroke:#000000;stroke-width:0.75305629px;stroke-linecap:butt;stroke-linejoin:miter;stroke-opacity:1"
         d="m 345.55618,174.56377 c 0.0441,-4.21306 0.51954,-8.71366 -5.27139,-9.03668 -2.55247,0.21723 -8.52288,0.2907 -7.28668,12.30196 l 6.53362,23.09169 c 5.20869,7.34245 6.64791,3.37647 9.03668,2.25917 l -3.01223,-28.61614 z"
         id="path8066"
         sodipodi:nodetypes="cccccc"
         inkscape:connector-curvature="0" />
      <path
         sodipodi:nodetypes="cccc"
         id="path9069"
         d="m 361.97029,232.85119 51.35671,2.41669 c -7.45883,11.94986 -17.57105,24.86363 -27.18666,40.6564 -12.03022,-13.85566 -15.89298,-29.21743 -24.17005,-43.07309 z"
         style="fill:#ffffff;fill-rule:evenodd;stroke:#000000;stroke-width:0.60418379px;stroke-linecap:butt;stroke-linejoin:miter;stroke-opacity:1"
         inkscape:connector-curvature="0" />
      <path
         style="fill:none;stroke:#000000;stroke-width:0.75305629px;stroke-linecap:butt;stroke-linejoin:miter;stroke-opacity:1"
         d="m 384.73153,244.14362 -3.21006,14.65007 -16.22072,-12.88932"
         id="path4232"
         sodipodi:nodetypes="ccc"
         inkscape:connector-curvature="0" />
      <path
         sodipodi:nodetypes="ccc"
         id="path13047"
         d="m 387.04428,243.96684 3.21006,14.65007 16.22072,-12.88932"
         style="fill:none;stroke:#000000;stroke-width:0.75305629px;stroke-linecap:butt;stroke-linejoin:miter;stroke-opacity:1"
         inkscape:connector-curvature="0" />
      <path
         sodipodi:nodetypes="cccccccc"
         id="path9089"
         d="m 339.66858,226.19968 c 13.22763,-5.44346 19.91323,-2.30807 31.24721,7.65235 5.36255,5.85526 8.58286,31.6124 -3.95021,36.50952 -18.95126,-15.01356 -48.60006,46.95995 -59.69069,12.92172 l -9.18242,1.15485 -2.23108,-6.08171 5.0946,-7.46369 c -25.8589,-24.26218 45.57184,-23.74651 38.71259,-44.69304 z"
         style="fill:#800000;fill-rule:evenodd;stroke:#000000;stroke-width:0.75305629px;stroke-linecap:butt;stroke-linejoin:miter;stroke-opacity:1"
         inkscape:connector-curvature="0" />
      <path
         sodipodi:nodetypes="ccccccc"
         id="path2160"
         d="m 339.13031,180.31927 c -1.10314,27.77411 4.58558,43.28815 18.97275,51.11608 14.35555,20.38359 41.93432,11.06626 55.33354,6.58529 30.65369,-10.96017 23.79121,-33.82479 30.5138,-54.15889 -2.31802,-31.3694 -14.25209,-42.01108 -36.57702,-51.63814 -33.95161,-6.03245 -35.59236,2.79139 -43.39221,5.17145 -16.86469,10.61951 -23.17133,26.61027 -24.85086,42.92421 z"
         style="fill:#f4d7d7;fill-rule:evenodd;stroke:#000000;stroke-width:0.75300002;stroke-linecap:butt;stroke-linejoin:miter;stroke-miterlimit:4;stroke-opacity:1;stroke-dasharray:none"
         inkscape:connector-curvature="0" />
      <path
         sodipodi:nodetypes="csssssssc"
         id="path4240"
         d="m 424.25796,189.85376 c 0,3.14699 -2.24239,5.25989 -4.99746,7.3526 -2.75508,2.09272 -4.52284,4.16525 -9.05887,4.04951 -11.12058,-0.28375 -17.613,-1.4349 -18.03124,-10.51823 -0.22133,-4.80681 6.86609,-10.34316 16.44025,-11.40208 0.19325,-0.0214 1.03281,-0.25041 1.89663,-0.46662 0.86382,-0.2162 1.75189,-0.41957 2.04216,-0.38958 2.54009,0.26241 4.84222,1.44389 7.50933,3.51583 2.66711,2.07194 4.1992,5.03433 4.1992,7.85857 z"
         style="fill:#c4c8b7;fill-opacity:1;stroke:none"
         inkscape:connector-curvature="0" />
      <path
         sodipodi:nodetypes="csssssssc"
         id="path3134"
         d="m 374.99263,192.42609 c 0,1.49128 -2.85321,4.54834 -4.99578,5.52632 -2.14257,0.97797 -5.86565,1.8675 -9.13278,1.8675 -3.26713,0 -3.56252,-2.88018 -5.70509,-3.85815 -2.14258,-0.97798 -3.46838,-2.32876 -3.46838,-3.82004 0,-1.49128 3.60791,-5.12417 5.75048,-6.10215 2.14258,-0.97797 2.81982,-1.58313 6.08695,-1.58313 3.26713,0 6.9902,-0.53236 9.13278,0.44561 2.14257,0.97798 2.33182,6.03277 2.33182,7.52404 z"
         style="fill:#aca793;fill-opacity:1;stroke:#000000;stroke-width:0.65243685;stroke-miterlimit:4;stroke-opacity:1;stroke-dasharray:none;stroke-dashoffset:0"
         inkscape:connector-curvature="0" />
      <path
         style="fill:#ffffff;fill-opacity:1;stroke:#1f0c0c;stroke-width:0.7304709;stroke-miterlimit:4;stroke-opacity:1;stroke-dasharray:none;stroke-dashoffset:0"
         d="m 394.12535,188.80902 c 0,1.87486 0.0474,6.93872 1.93524,8.52342 1.46476,1.22953 1.8794,3.36391 5.12836,3.1282 3.2575,-0.23633 4.70663,0.33081 6.72622,-0.74893 3.42012,-1.82851 4.42901,-6.0172 4.33943,-8.04055 -0.072,-1.6264 -0.83485,-6.83527 -2.83682,-8.19908 -2.03706,-1.38771 -1.37458,-1.81356 -4.63208,-1.81356 -3.25749,0 -3.92377,0.0457 -6.06003,1.27528 -2.13626,1.22953 -4.60032,4.00036 -4.60032,5.87522 z"
         id="path3137"
         sodipodi:nodetypes="csssssssc"
         inkscape:connector-curvature="0" />
      <path
         sodipodi:nodetypes="cc"
         id="path3153"
         d="m 421.81469,182.28231 c -8.61985,-5.46008 -20.25281,-4.08094 -29.11554,3.34818"
         style="fill:none;stroke:#000000;stroke-width:1.88264072;stroke-linecap:butt;stroke-linejoin:miter;stroke-miterlimit:4;stroke-opacity:1;stroke-dasharray:none"
         inkscape:connector-curvature="0" />
      <path
         transform="matrix(0.5538255,0,0,0.5675748,207.86217,12.65104)"
         d="m 351.02802,314.44574 c 0,2.51051 -2.03518,4.54569 -4.54569,4.54569 -2.51051,0 -4.54569,-2.03518 -4.54569,-4.54569 0,-2.51051 2.03518,-4.54569 4.54569,-4.54569 2.51051,0 4.54569,2.03518 4.54569,4.54569 z"
         sodipodi:ry="4.5456862"
         sodipodi:rx="4.5456862"
         sodipodi:cy="314.44574"
         sodipodi:cx="346.48233"
         id="path5115"
         style="fill:#000000;fill-opacity:1;stroke:#000000;stroke-width:1;stroke-miterlimit:4;stroke-opacity:1;stroke-dasharray:none;stroke-dashoffset:0"
         sodipodi:type="arc" />
      <path
         style="fill:none;stroke:#000000;stroke-width:0.75305629px;stroke-linecap:butt;stroke-linejoin:miter;stroke-opacity:1"
         d="m 347.10782,192.15493 c 4.51824,-8.69265 17.93747,-8.95457 22.76325,-7.87212"
         id="path5131"
         sodipodi:nodetypes="cc"
         inkscape:connector-curvature="0" />
      <path
         style="fill:none;stroke:#000000;stroke-width:1.88264072;stroke-linecap:butt;stroke-linejoin:miter;stroke-miterlimit:4;stroke-opacity:1;stroke-dasharray:none"
         d="m 376.2336,189.91872 c -4.22993,-12.37158 -16.39308,-14.54431 -25.63375,-6.52713"
         id="path5133"
         sodipodi:nodetypes="cc"
         inkscape:connector-curvature="0" />
      <path
         sodipodi:nodetypes="cccc"
         id="path5137"
         d="m 430.73681,169.34336 c 1.72771,3.46405 6.7845,7.54257 6.5379,11.79339 0.41722,2.5714 -4.14115,4.25518 -4.55571,-0.4774 0.0362,-5.91461 -1.67354,-5.30609 -1.98219,-11.31599 z"
         style="fill:#ffffff;fill-opacity:1;fill-rule:evenodd;stroke:#000000;stroke-width:0.75305629px;stroke-linecap:butt;stroke-linejoin:miter;stroke-opacity:1"
         inkscape:connector-curvature="0" />
      <path
         sodipodi:nodetypes="cc"
         id="path5149"
         d="m 352.97705,193.30365 c 6.96369,-1.85081 14.1151,-4.49004 20.23467,-2.79558"
         style="fill:none;stroke:#000000;stroke-width:0.75305629px;stroke-linecap:butt;stroke-linejoin:miter;stroke-opacity:1"
         inkscape:connector-curvature="0" />
      <path
         id="path5151"
         d="m 356.30513,190.17526 2.12996,4.39305"
         style="fill:none;stroke:#000000;stroke-width:0.75305629px;stroke-linecap:butt;stroke-linejoin:miter;stroke-opacity:1"
         inkscape:connector-curvature="0" />
      <path
         id="path5153"
         d="m 361.29723,187.84561 2.26309,6.05709"
         style="fill:none;stroke:#000000;stroke-width:0.75305629px;stroke-linecap:butt;stroke-linejoin:miter;stroke-opacity:1"
         inkscape:connector-curvature="0" />
      <path
         id="path5155"
         d="m 367.73084,187.53565 1.19811,5.32491"
         style="fill:none;stroke:#000000;stroke-width:0.75305629px;stroke-linecap:butt;stroke-linejoin:miter;stroke-opacity:1"
         inkscape:connector-curvature="0" />
      <path
         id="path5157"
         d="m 373.14516,188.31155 -0.13313,4.19336"
         style="fill:none;stroke:#000000;stroke-width:0.75305629px;stroke-linecap:butt;stroke-linejoin:miter;stroke-opacity:1"
         inkscape:connector-curvature="0" />
      <path
         sodipodi:nodetypes="cc"
         id="path8088"
         d="m 423.88171,145.13969 c 3.2243,-7.03422 9.78528,-11.88663 16.31112,-16.82335"
         style="fill:none;stroke:#000000;stroke-width:1.29100001;stroke-linecap:butt;stroke-linejoin:miter;stroke-miterlimit:4;stroke-opacity:1;stroke-dasharray:none"
         inkscape:connector-curvature="0" />
      <path
         sodipodi:nodetypes="cc"
         id="path8090"
         d="m 356.03305,147.74603 c -4.27409,-4.7247 -10.08054,-8.68322 -10.8772,-15.14664"
         style="fill:none;stroke:#000000;stroke-width:1.32799995;stroke-linecap:butt;stroke-linejoin:miter;stroke-miterlimit:4;stroke-opacity:1;stroke-dasharray:none"
         inkscape:connector-curvature="0" />
      <path
         sodipodi:nodetypes="cc"
         id="path9063"
         d="m 431.69351,148.84116 16.31419,-4.2714"
         style="fill:none;stroke:#000000;stroke-width:1.29100001;stroke-linecap:butt;stroke-linejoin:miter;stroke-miterlimit:4;stroke-opacity:1;stroke-dasharray:none"
         inkscape:connector-curvature="0" />
      <path
         sodipodi:nodetypes="cccccccccccccccccccccccc"
         id="path9091"
         d="m 298.40869,274.62456 4.29442,9.15495 -51.69294,27.55683 -0.479,3.08249 c 1.66126,1.00149 3.88119,-0.19679 5.54245,0.16517 l -1.137,2.77779 c -2.20765,-1.75906 -2.4692,-1.2577 -4.17791,-0.0231 l -0.77247,3.04487 c 1.63002,1.04322 1.73947,1.19769 4.35418,0.76389 l -0.26047,3.83952 c -2.04127,-0.40506 -3.9499,-2.83405 -5.99117,-1.80854 l -0.39748,2.91987 -4.50623,3.86098 -2.6236,-4.04612 0.69835,-3.41952 c -0.90038,-0.84742 -4.09717,-2.5665 -5.98189,-1.9374 l 0.31679,-3.12174 c 1.76826,2.73325 4.78347,2.80758 6.55173,1.07483 l 0.69836,-2.85473 c -1.24611,-0.94067 -4.20096,-0.8121 -6.39082,-0.33715 l 1.34616,-3.52188 c 1.49599,1.50141 4.18024,2.73571 5.67623,1.30208 l 1.19637,-5.38091 53.73594,-33.09219 z"
         style="fill:#550000;fill-rule:evenodd;stroke:#000000;stroke-width:0.75305629px;stroke-linecap:butt;stroke-linejoin:miter;stroke-opacity:1"
         inkscape:connector-curvature="0" />
      <path
         id="path9095"
         d="m 350.56063,255.23492 c 0,5.04021 -4.17495,9.13081 -9.31908,9.13081 -5.14412,0 -9.31907,-4.0906 -9.31907,-9.13081 0,-5.0402 4.17495,-9.13081 9.31907,-9.13081 5.14413,0 9.31908,4.09061 9.31908,9.13081 z"
         style="fill:#782121;fill-opacity:1;stroke:#000000;stroke-width:1.73202944;stroke-miterlimit:4;stroke-opacity:1;stroke-dashoffset:0"
         inkscape:connector-curvature="0" />
      <path
         sodipodi:nodetypes="cc"
         id="path9098"
         d="m 353.55947,233.99615 12.06228,20.01506"
         style="fill:none;stroke:#000000;stroke-width:0.75305629px;stroke-linecap:butt;stroke-linejoin:miter;stroke-opacity:1"
         inkscape:connector-curvature="0" />
      <path
         sodipodi:nodetypes="ccc"
         id="path9100"
         d="m 363.54779,250.11787 -113.64824,60.18429 -3.44896,16.19071"
         style="fill:none;stroke:#000000;stroke-width:0.75305629px;stroke-linecap:butt;stroke-linejoin:miter;stroke-opacity:1"
         inkscape:connector-curvature="0" />
      <path
         sodipodi:nodetypes="ccc"
         id="path9102"
         d="m 361.29149,246.82029 -112.76999,62.72882 -4.33008,19.3912"
         style="fill:none;stroke:#000000;stroke-width:0.75305629px;stroke-linecap:butt;stroke-linejoin:miter;stroke-opacity:1"
         inkscape:connector-curvature="0" />
      <path
         sodipodi:nodetypes="ccc"
         id="path9104"
         d="m 359.03365,243.15057 -112.01827,65.83527 -3.95354,20.14273"
         style="fill:none;stroke:#000000;stroke-width:0.75305629px;stroke-linecap:butt;stroke-linejoin:miter;stroke-opacity:1"
         inkscape:connector-curvature="0" />
      <path
         sodipodi:nodetypes="ccc"
         id="path9106"
         d="m 357.02075,239.3098 c -17.83425,11.57658 -90.7203,57.53148 -111.32321,69.10972 l -3.76529,18.82641"
         style="fill:none;stroke:#000000;stroke-width:0.75305629px;stroke-linecap:butt;stroke-linejoin:miter;stroke-opacity:1"
         inkscape:connector-curvature="0" />
      <path
         id="path9115"
         d="m 367.40197,254.69117 c 0,0.73484 -0.59638,1.33123 -1.33122,1.33123 -0.73484,0 -1.33123,-0.59639 -1.33123,-1.33123 0,-0.73484 0.59639,-1.33123 1.33123,-1.33123 0.73484,0 1.33122,0.59639 1.33122,1.33123 z"
         style="fill:#000000;fill-opacity:1;stroke:#000000;stroke-width:1.73202944;stroke-miterlimit:4;stroke-opacity:1;stroke-dashoffset:0"
         inkscape:connector-curvature="0" />
      <path
         id="path9119"
         d="m 322.40472,281.86004 c 0,1.39595 -1.13293,2.52889 -2.52888,2.52889 -1.39594,0 -2.52888,-1.13294 -2.52888,-2.52889 0,-1.39594 1.13294,-2.52888 2.52888,-2.52888 1.39595,0 2.52888,1.13294 2.52888,2.52888 z"
         style="fill:#000000;fill-opacity:1;stroke:#000000;stroke-width:3.29026771;stroke-miterlimit:4;stroke-opacity:1;stroke-dashoffset:0"
         inkscape:connector-curvature="0" />
      <path
         sodipodi:nodetypes="cscccc"
         id="path9123"
         d="m 277.70243,309.73737 c 5.23612,-2.57537 8.36034,-5.37746 10.32394,-8.25965 2.09273,-3.07171 2.86719,-6.23442 3.47496,-9.31064 l 16.88814,-4.4566 8.47189,36.33496 -39.15893,-14.30807 z"
         style="fill:#000000;fill-rule:evenodd;stroke:#000000;stroke-width:0.75305629px;stroke-linecap:butt;stroke-linejoin:miter;stroke-opacity:1"
         inkscape:connector-curvature="0" />
      <path
         sodipodi:nodetypes="ccccccc"
         id="path11067"
         d="m 357.33227,309.47962 -54.31411,-79.60744 -3.99369,-1.86372 2.12997,-2.39621 4.34345,2.39622 52.63311,80.67241 -0.79873,0.79874 z"
         style="fill:#916f6f;fill-opacity:1;fill-rule:evenodd;stroke:#000000;stroke-width:0.75305629px;stroke-linecap:butt;stroke-linejoin:miter;stroke-opacity:1"
         inkscape:connector-curvature="0" />
      <path
         sodipodi:nodetypes="cccccsccccccccccccc"
         id="path10096"
         d="m 376.26747,290.21906 -6.20431,-1.36913 -9.66549,5.02077 c -4.96649,1.4379 -15.83167,-0.27123 -5.6718,7.94947 l 12.16663,-1.36913 c -7.11648,1.65798 -16.21163,1.80037 -17.64163,2.24637 -5.85045,1.8247 -5.54877,7.91572 10.91269,5.73452 l 10.03327,2.87925 -18.71011,-2.9342 c -6.19134,2.18392 -2.10454,4.46733 0.17523,6.73326 l 15.50627,3.43995 -14.17326,-1.0945 c 0.42333,1.7515 -3.20642,4.97869 6.20012,5.2289 l 14.22565,3.37665 -11.03522,0.30488 c -3.65129,4.09337 -4.9603,6.82292 4.53992,5.51032 9.62888,2.43403 22.2752,-5.09376 26.52824,-11.30565 l 1.59942,-16.21239 c -0.87765,-9.6219 -12.7656,-11.75904 -18.78562,-14.13934 z"
         style="fill:#f4d7d7;fill-opacity:1;fill-rule:evenodd;stroke:#000000;stroke-width:0.75305629px;stroke-linecap:butt;stroke-linejoin:miter;stroke-opacity:1"
         inkscape:connector-curvature="0" />
      <path
         sodipodi:nodetypes="cccccccc"
         id="path13013"
         d="m 415.51173,431.73249 28.61614,-12.0489 c 17.24463,7.31198 49.54501,12.68981 41.4181,30.87531 l -27.11003,0.37653 c -9.00454,-7.02096 -17.8228,-12.17914 -24.85086,0.56479 l -15.81418,-0.84719 -4.51834,-5.36552 2.25917,-13.55502 z"
         style="fill:#000000;fill-rule:evenodd;stroke:#000000;stroke-width:0.75305629px;stroke-linecap:butt;stroke-linejoin:miter;stroke-opacity:1"
         inkscape:connector-curvature="0" />
      <path
         id="path13019"
         d="m 334.93471,426.4611 12.0489,0.75306"
         style="fill:none;stroke:#000000;stroke-width:0.75305629px;stroke-linecap:butt;stroke-linejoin:miter;stroke-opacity:1"
         inkscape:connector-curvature="0" />
      <path
         id="path13021"
         d="m 333.42859,430.97944 14.30807,-2.25917"
         style="fill:none;stroke:#000000;stroke-width:0.75305629px;stroke-linecap:butt;stroke-linejoin:miter;stroke-opacity:1"
         inkscape:connector-curvature="0" />
      <path
         id="path13023"
         d="m 435.09119,418.93054 -12.80195,5.27139"
         style="fill:none;stroke:#000000;stroke-width:0.75305629px;stroke-linecap:butt;stroke-linejoin:miter;stroke-opacity:1"
         inkscape:connector-curvature="0" />
      <path
         id="path13025"
         d="m 430.57286,422.69582 -10.54279,5.27139"
         style="fill:none;stroke:#000000;stroke-width:0.75305629px;stroke-linecap:butt;stroke-linejoin:miter;stroke-opacity:1"
         inkscape:connector-curvature="0" />
      <path
         sodipodi:nodetypes="ccccc"
         id="path13027"
         d="m 371.08141,140.2997 c 14.55909,-4.60926 29.11818,-1.80582 43.67726,-0.75305 l -26.35697,6.02445 16.56724,2.25917 c -2.84148,2.68393 -5.68297,4.87842 -8.52445,4.26834"
         style="fill:none;stroke:#000000;stroke-width:0.75305629px;stroke-linecap:butt;stroke-linejoin:miter;stroke-opacity:1"
         inkscape:connector-curvature="0" />
      <path
         sodipodi:nodetypes="ccccsc"
         id="rect13031"
         d="m 453.80732,319.13165 18.8264,0.37653 c 3.46788,10.19073 -3.32048,24.57708 -9.06343,25.60391 l -15.78742,-3.38875 c 0.57528,-4.84272 -2.24864,-8.94024 1.64039,-13.78296 3.27459,-4.07761 7.96681,-3.6107 4.38406,-8.80873 z"
         style="fill:#916f6f;fill-opacity:1;stroke:#000000;stroke-width:1.73202944;stroke-miterlimit:4;stroke-opacity:1;stroke-dashoffset:0"
         inkscape:connector-curvature="0" />
      <path
         sodipodi:nodetypes="cc"
         id="path13034"
         d="m 388.90782,212.59617 c -5.97269,-0.85359 -6.22767,0.48163 -12.83071,-2.26223"
         style="fill:none;stroke:#000000;stroke-width:0.75305629px;stroke-linecap:butt;stroke-linejoin:miter;stroke-opacity:1"
         inkscape:connector-curvature="0" />
      <path
         id="path13041"
         d="m 358.37384,199.00256 -12.37948,5.46412"
         style="fill:none;stroke:#000000;stroke-width:0.75305629px;stroke-linecap:butt;stroke-linejoin:miter;stroke-opacity:1"
         sodipodi:nodetypes="cc"
         inkscape:connector-curvature="0" />
      <path
         sodipodi:nodetypes="cc"
         id="path13043"
         d="m 357.10267,202.12875 -7.97601,3.45768"
         style="fill:none;stroke:#000000;stroke-width:0.75305629px;stroke-linecap:butt;stroke-linejoin:miter;stroke-opacity:1"
         inkscape:connector-curvature="0" />
      <path
         style="fill:#916f6f;fill-opacity:1;stroke:#000000;stroke-width:1.73202944;stroke-miterlimit:4;stroke-opacity:1;stroke-dashoffset:0"
         d="m 324.39192,314.38529 c 3.46788,10.19074 2.73072,9.51596 -3.01223,10.54279 L 306.6951,318.5271 c 5.19446,-2.2612 8.79328,-6.51695 17.69682,-4.14181 z"
         id="path13045"
         sodipodi:nodetypes="cccc"
         inkscape:connector-curvature="0" />
      <path
         id="path13052"
         d="m 388.25104,275.87451 c 0,1.69013 -1.31206,3.06183 -2.9287,3.06183 -1.61664,0 -2.9287,-1.3717 -2.9287,-3.06183 0,-1.69013 1.31206,-3.06182 2.9287,-3.06182 1.61664,0 2.9287,1.37169 2.9287,3.06182 z"
         style="fill:#800000;fill-opacity:1;stroke:#ffffff;stroke-width:1.73202944;stroke-miterlimit:4;stroke-opacity:1;stroke-dashoffset:0"
         inkscape:connector-curvature="0" />
      <path
         sodipodi:nodetypes="cc"
         id="path13122"
         d="m 365,466.06929 63,0"
         style="fill:none;stroke:#000000;stroke-width:1px;stroke-linecap:butt;stroke-linejoin:miter;stroke-opacity:1"
         inkscape:connector-curvature="0" />
      <path
         sodipodi:nodetypes="cc"
         style="fill:none;stroke:#000000;stroke-width:1px;stroke-linecap:butt;stroke-linejoin:miter;stroke-opacity:1"
         d="m 344.41421,457.94797 101,0"
         id="path13124"
         inkscape:connector-curvature="0" />
      <path
         sodipodi:nodetypes="cc"
         id="path13140"
         d="M 422.35355,224.35698 436,219.36218"
         style="fill:none;stroke:#000000;stroke-width:0.75300002;stroke-linecap:butt;stroke-linejoin:miter;stroke-miterlimit:4;stroke-opacity:1;stroke-dasharray:none"
         inkscape:connector-curvature="0" />
      <path
         sodipodi:nodetypes="cc"
         id="path13142"
         d="m 427.52513,218.21573 10.12132,-3.17157"
         style="fill:none;stroke:#000000;stroke-width:0.75300002;stroke-linecap:butt;stroke-linejoin:miter;stroke-miterlimit:4;stroke-opacity:1;stroke-dasharray:none"
         inkscape:connector-curvature="0" />
      <path
         id="path2224"
         d="m 458.5,322.36218 0,-7.25"
         style="fill:none;stroke:#ffffff;stroke-width:1px;stroke-linecap:butt;stroke-linejoin:miter;stroke-opacity:1"
         inkscape:connector-curvature="0" />
      <path
         sodipodi:nodetypes="cc"
         id="path3197"
         d="m 462.42955,322.58517 2,-7.5"
         style="fill:none;stroke:#ffffff;stroke-width:1px;stroke-linecap:butt;stroke-linejoin:miter;stroke-opacity:1"
         inkscape:connector-curvature="0" />
      <path
         sodipodi:nodetypes="cc"
         id="path3199"
         d="m 466.92955,323.08517 2.75,-5.75"
         style="fill:none;stroke:#ffffff;stroke-width:1px;stroke-linecap:butt;stroke-linejoin:miter;stroke-opacity:1"
         inkscape:connector-curvature="0" />
      <path
         sodipodi:nodetypes="cc"
         id="path3201"
         d="m 455.67955,325.58517 -4.5,-2.5"
         style="fill:none;stroke:#ffffff;stroke-width:1px;stroke-linecap:butt;stroke-linejoin:miter;stroke-opacity:1"
         inkscape:connector-curvature="0" />
      <path
         sodipodi:nodetypes="cc"
         id="path3203"
         d="m 452.92955,329.58517 -7.5,0.5"
         style="fill:none;stroke:#ffffff;stroke-width:1px;stroke-linecap:butt;stroke-linejoin:miter;stroke-opacity:1"
         inkscape:connector-curvature="0" />
      <path
         sodipodi:nodetypes="cc"
         id="path3205"
         d="m 452.17955,337.08517 -6.5,1.25"
         style="fill:none;stroke:#ffffff;stroke-width:1px;stroke-linecap:butt;stroke-linejoin:miter;stroke-opacity:1"
         inkscape:connector-curvature="0" />
      <path
         sodipodi:nodetypes="cc"
         id="path3207"
         d="m 452.17955,344.33517 1.75,-4.5"
         style="fill:none;stroke:#ffffff;stroke-width:1px;stroke-linecap:butt;stroke-linejoin:miter;stroke-opacity:1"
         inkscape:connector-curvature="0" />
      <path
         sodipodi:nodetypes="cc"
         id="path3209"
         d="m 456.42955,345.33517 1,-5.25"
         style="fill:none;stroke:#ffffff;stroke-width:1px;stroke-linecap:butt;stroke-linejoin:miter;stroke-opacity:1"
         inkscape:connector-curvature="0" />
      <path
         sodipodi:nodetypes="cc"
         id="path3211"
         d="m 393.54172,320.99434 c 11.31287,4.00778 26.73817,15.90313 40.94113,17.02082"
         style="fill:none;stroke:#373737;stroke-width:1px;stroke-linecap:butt;stroke-linejoin:miter;stroke-opacity:1"
         inkscape:connector-curvature="0" />
      <path
         id="path4182"
         d="m 314.38865,317.39815 -6.71751,-5.3033"
         style="fill:none;stroke:#ffffff;stroke-width:1px;stroke-linecap:butt;stroke-linejoin:miter;stroke-opacity:1"
         inkscape:connector-curvature="0" />
      <path
         id="path4184"
         d="m 318.27774,317.0446 -3.18198,-7.07107"
         style="fill:none;stroke:#ffffff;stroke-width:1px;stroke-linecap:butt;stroke-linejoin:miter;stroke-opacity:1"
         inkscape:connector-curvature="0" />
      <path
         id="path4186"
         d="m 322.16683,316.69104 -1.06066,-6.36396"
         style="fill:none;stroke:#ffffff;stroke-width:1px;stroke-linecap:butt;stroke-linejoin:miter;stroke-opacity:1"
         inkscape:connector-curvature="0" />
      <path
         id="path4188"
         d="m 322.52038,319.87302 6.01041,-2.47487"
         style="fill:none;stroke:#ffffff;stroke-width:1px;stroke-linecap:butt;stroke-linejoin:miter;stroke-opacity:1"
         inkscape:connector-curvature="0" />
      <path
         sodipodi:nodetypes="csssssssc"
         id="path6128"
         d="m 439.43566,402.296 c 0,2.87864 -1.04935,8.31452 -2.74517,10.20232 -1.69582,1.8878 -4.03811,0.22751 -6.624,0.22751 -2.58589,0 -4.92818,-1.16814 -6.624,-3.05594 -1.69582,-1.8878 0.0833,-4.49525 0.0833,-7.37389 0,-2.87863 -1.77909,-5.48609 -0.0833,-7.37388 1.69582,-1.8878 4.03811,-3.05594 6.624,-3.05594 2.58589,0 7.0495,-0.95318 8.74532,0.93462 1.69582,1.88779 0.62385,6.61657 0.62385,9.4952 z"
         style="fill:#aca793;fill-opacity:1;stroke:#000000;stroke-width:0.75300002;stroke-miterlimit:4;stroke-opacity:1;stroke-dashoffset:0"
         inkscape:connector-curvature="0" />
      <path
         sodipodi:nodetypes="cc"
         style="fill:none;stroke:#ffffff;stroke-width:1px;stroke-linecap:butt;stroke-linejoin:miter;stroke-opacity:1"
         d="m 431.51903,395.06245 -2.12132,-7.25"
         id="path7100"
         inkscape:connector-curvature="0" />
      <path
         style="fill:none;stroke:#ffffff;stroke-width:1px;stroke-linecap:butt;stroke-linejoin:miter;stroke-opacity:1"
         d="m 435.44858,395.99255 0.58579,-7.5"
         id="path7102"
         sodipodi:nodetypes="cc"
         inkscape:connector-curvature="0" />
      <path
         style="fill:none;stroke:#ffffff;stroke-width:1px;stroke-linecap:butt;stroke-linejoin:miter;stroke-opacity:1"
         d="m 437.47371,396.13899 1.33579,-5.75"
         id="path7104"
         sodipodi:nodetypes="cc"
         inkscape:connector-curvature="0" />
      <path
         style="fill:none;stroke:#ffffff;stroke-width:1px;stroke-linecap:butt;stroke-linejoin:miter;stroke-opacity:1"
         d="m 426.57726,396.87123 -2.73223,-4.26777"
         id="path7106"
         sodipodi:nodetypes="cc"
         inkscape:connector-curvature="0" />
      <path
         style="fill:none;stroke:#ffffff;stroke-width:1px;stroke-linecap:butt;stroke-linejoin:miter;stroke-opacity:1"
         d="m 428.42346,401.93189 -8.91422,-3.38909"
         id="path7108"
         sodipodi:nodetypes="cc"
         inkscape:connector-curvature="0" />
      <path
         style="fill:none;stroke:#ffffff;stroke-width:1px;stroke-linecap:butt;stroke-linejoin:miter;stroke-opacity:1"
         d="m 428.02701,406.60346 -8.62132,-1.57843"
         id="path7110"
         sodipodi:nodetypes="cc"
         inkscape:connector-curvature="0" />
      <path
         style="fill:none;stroke:#ffffff;stroke-width:1px;stroke-linecap:butt;stroke-linejoin:miter;stroke-opacity:1"
         d="m 424.84503,413.85346 1.75,-4.5"
         id="path7112"
         sodipodi:nodetypes="cc"
         inkscape:connector-curvature="0" />
      <path
         style="fill:none;stroke:#ffffff;stroke-width:1px;stroke-linecap:butt;stroke-linejoin:miter;stroke-opacity:1"
         d="m 434.75188,415.56057 -0.76776,-5.95711"
         id="path7114"
         sodipodi:nodetypes="cc"
         inkscape:connector-curvature="0" />
      <path
         sodipodi:nodetypes="cc"
         id="path2248"
         d="m 380.48528,391.06408 -26.30851,2.65165"
         style="fill:none;stroke:#000000;stroke-width:0.75300002;stroke-linecap:butt;stroke-linejoin:miter;stroke-miterlimit:4;stroke-opacity:1;stroke-dasharray:none"
         inkscape:connector-curvature="0" />
      <path
         sodipodi:nodetypes="cc"
         id="path2250"
         d="m 375.43502,394.58921 -18.66204,4.53033"
         style="fill:none;stroke:#000000;stroke-width:0.75300002;stroke-linecap:butt;stroke-linejoin:miter;stroke-miterlimit:4;stroke-opacity:1;stroke-dasharray:none"
         inkscape:connector-curvature="0" />
      <path
         sodipodi:nodetypes="cc"
         id="path2252"
         d="m 367.96665,402.26004 -6.64124,3.82322"
         style="fill:none;stroke:#000000;stroke-width:0.75300002;stroke-linecap:butt;stroke-linejoin:miter;stroke-miterlimit:4;stroke-opacity:1;stroke-dasharray:none"
         inkscape:connector-curvature="0" />
      <path
         id="path3236"
         d="m 368.0681,214.03924 c 0,4.87905 -4.19738,8.83884 -9.36916,8.83884 -5.17179,0 -9.36917,-3.95979 -9.36917,-8.83884 0,-4.87904 4.19738,-8.83883 9.36917,-8.83883 5.17178,0 9.36916,3.95979 9.36916,8.83883 z"
         style="fill:url(#radialGradient4216);fill-opacity:1;stroke:none"
         inkscape:connector-curvature="0" />
      <path
         style="fill:url(#radialGradient4220);fill-opacity:1;stroke:none"
         d="m 427.70771,213.00891 c 0,5.83812 -6.10933,10.57628 -13.63692,10.57628 -7.5276,0 -13.63694,-4.73816 -13.63694,-10.57628 0,-5.8381 6.10934,-10.57626 13.63694,-10.57626 7.52759,0 13.63692,4.73816 13.63692,10.57626 z"
         id="path4218"
         inkscape:connector-curvature="0" />
      <path
         sodipodi:nodetypes="ccccc"
         id="path4222"
         d="m 378.47021,211.33213 c -0.4554,2.07792 -0.29733,4.15584 -1.591,6.23376 -0.31116,2.90389 4.00984,2.78955 3.88909,0 -0.96871,-1.84222 -0.69868,-3.68443 -0.79549,-5.52665 l -1.5026,-0.70711 z"
         style="fill:#ffffff;fill-opacity:1;fill-rule:evenodd;stroke:#000000;stroke-width:0.60000002;stroke-linecap:butt;stroke-linejoin:miter;stroke-miterlimit:4;stroke-opacity:1;stroke-dasharray:none"
         inkscape:connector-curvature="0" />
      <path
         id="path4224"
         d="m 309.83114,259.64693 c 0,1.39595 -1.13293,2.52889 -2.52888,2.52889 -1.39594,0 -2.52888,-1.13294 -2.52888,-2.52889 0,-1.39594 1.13294,-2.52888 2.52888,-2.52888 1.39595,0 2.52888,1.13294 2.52888,2.52888 z"
         style="fill:#000000;fill-opacity:1;stroke:#000000;stroke-width:3.29026771;stroke-miterlimit:4;stroke-opacity:1;stroke-dashoffset:0"
         inkscape:connector-curvature="0" />
      <path
         style="fill:#000000;fill-opacity:1;stroke:#000000;stroke-width:1.73202944;stroke-miterlimit:4;stroke-opacity:1;stroke-dashoffset:0"
         d="m 354.67405,233.83152 c 0,0.73484 -0.59638,1.33123 -1.33122,1.33123 -0.73484,0 -1.33123,-0.59639 -1.33123,-1.33123 0,-0.73484 0.59639,-1.33123 1.33123,-1.33123 0.73484,0 1.33122,0.59639 1.33122,1.33123 z"
         id="path4226"
         inkscape:connector-curvature="0" />
      <path
         style="fill:#800000;fill-opacity:1;stroke:#ffffff;stroke-width:1.73202944;stroke-miterlimit:4;stroke-opacity:1;stroke-dashoffset:0"
         d="m 387.25104,335.37451 c 0,1.69013 -1.31206,3.06183 -2.9287,3.06183 -1.61664,0 -2.9287,-1.3717 -2.9287,-3.06183 0,-1.69013 1.31206,-3.06182 2.9287,-3.06182 1.61664,0 2.9287,1.37169 2.9287,3.06182 z"
         id="path4228"
         inkscape:connector-curvature="0" />
      <path
         id="path4234"
         d="m 384.569,244.03582 2.2981,0"
         style="fill:none;stroke:#000000;stroke-width:1px;stroke-linecap:butt;stroke-linejoin:miter;stroke-opacity:1"
         inkscape:connector-curvature="0" />
      <path
         sodipodi:nodetypes="ccccc"
         id="path4238"
         d="m 384.569,244.56615 2.65166,-0.17678 0.88388,4.77297 -4.24265,-0.35354 0.70711,-4.24265 z"
         style="fill:#000000;fill-rule:evenodd;stroke:none"
         inkscape:connector-curvature="0" />
      <path
         style="fill:none;stroke:#000000;stroke-width:0.75300002;stroke-linecap:butt;stroke-linejoin:miter;stroke-miterlimit:4;stroke-opacity:1;stroke-dasharray:none"
         d="m 370.83882,398.65507 -10.88386,3.82322"
         id="path5216"
         sodipodi:nodetypes="cc"
         inkscape:connector-curvature="0" />
      <path
         sodipodi:nodetypes="ccccc"
         id="path5222"
         d="m 236.27386,398.13644 83.95851,-2.08072 c -21.02214,26.70247 -36.28912,43.52154 -8.14523,70.22401 -17.79286,18.63769 -77.77477,15.83242 -86.46473,2.0807 16.44677,-26.70246 24.00946,-43.52152 10.65145,-70.22399 z"
         style="fill:#000000;fill-rule:evenodd;stroke:#000000;stroke-width:1.14178896px;stroke-linecap:butt;stroke-linejoin:miter;stroke-opacity:1"
         inkscape:connector-curvature="0" />
      <path
         id="path5220"
         d="m 349.05394,396.05572 c 0,9.18842 -32.28016,16.6457 -72.05394,16.6457 -39.77378,0 -72.05394,-7.45728 -72.05394,-16.6457 0,-9.18842 32.28016,-16.64568 72.05394,-16.64568 39.77378,0 72.05394,7.45726 72.05394,16.64568 z"
         style="fill:#666666;fill-opacity:1;stroke:#000000;stroke-width:1.29100001;stroke-miterlimit:4;stroke-opacity:1;stroke-dashoffset:0"
         inkscape:connector-curvature="0" />
      <path
         sodipodi:nodetypes="ccccc"
         id="path5233"
         d="m 227.50208,468.36043 c 7.45232,5.08348 17.20716,8.25536 31.32779,7.80267 -6.23481,-21.90661 2.69087,-42.5239 4.07262,-61.90115 -9.88416,1.54043 -13.24648,-0.52882 -18.4834,-1.56053 1.72294,20.58308 -2.2517,37.54815 -16.91701,55.65901 z"
         style="fill:#4d4d4d;fill-rule:evenodd;stroke:#000000;stroke-width:1.14178896px;stroke-linecap:butt;stroke-linejoin:miter;stroke-opacity:1"
         inkscape:connector-curvature="0" />
      <path
         id="path5225"
         d="m 317.11706,397.29844 c 0,3.73279 -17.96463,6.76231 -40.09959,6.76231 -22.13497,0 -40.09959,-3.02952 -40.09959,-6.76231 0,-3.73279 17.96462,-6.76231 40.09959,-6.76231 22.13496,0 40.09959,3.02952 40.09959,6.76231 z"
         style="fill:#c8b7b7;fill-opacity:1;stroke:none"
         inkscape:connector-curvature="0" />
      <path
         sodipodi:nodetypes="cc"
         id="path5227"
         d="m 263.84233,390.85395 -1.25312,12.74436"
         style="fill:none;stroke:#000000;stroke-width:1.14178896px;stroke-linecap:butt;stroke-linejoin:miter;stroke-opacity:1"
         inkscape:connector-curvature="0" />
      <path
         id="path5229"
         d="m 270.73444,390.33377 -0.62656,9.88338"
         style="fill:none;stroke:#000000;stroke-width:1.14178896px;stroke-linecap:butt;stroke-linejoin:miter;stroke-opacity:1"
         inkscape:connector-curvature="0" />
      <path
         sodipodi:nodetypes="cc"
         id="path5231"
         d="m 258.20332,391.11404 -0.62656,12.22418"
         style="fill:none;stroke:#000000;stroke-width:1.14178896px;stroke-linecap:butt;stroke-linejoin:miter;stroke-opacity:1"
         inkscape:connector-curvature="0" />
      <path
         sodipodi:nodetypes="cc"
         id="path5235"
         d="m 257.26349,391.11404 c 16.917,-1.07042 54.73521,-1.71844 59.83609,6.50222"
         style="fill:none;stroke:#000000;stroke-width:1.14178896px;stroke-linecap:butt;stroke-linejoin:miter;stroke-opacity:1"
         inkscape:connector-curvature="0" />
      <flowRoot
         id="flowRoot5247"
         xml:space="preserve"><flowRegion
           id="flowRegion5249"><rect
             y="1030.3622"
             x="421"
             height="38"
             width="56"
             id="rect5251" /></flowRegion><flowPara
           id="flowPara5253" /></flowRoot>      <path
         id="path6241"
         d="m 376,305.36218 4,17"
         style="fill:none;stroke:#000000;stroke-width:1px;stroke-linecap:butt;stroke-linejoin:miter;stroke-opacity:1"
         inkscape:connector-curvature="0" />
      <path
         id="path6243"
         d="m 383,309.36218 0,13"
         style="fill:none;stroke:#000000;stroke-width:1px;stroke-linecap:butt;stroke-linejoin:miter;stroke-opacity:1"
         inkscape:connector-curvature="0" />
      <path
         sodipodi:nodetypes="ccccc"
         id="path2378"
         d="m 243.32443,410.73625 c 22.98097,4.06369 40.30508,2.04582 63.28605,0.7071 l -6.01041,9.89949 c -13.20095,2.45579 -30.0192,7.65242 -56.21499,-1.06065 l -1.06065,-9.54594 z"
         style="fill:url(#linearGradient3355);fill-opacity:1;fill-rule:evenodd;stroke:#000000;stroke-width:1px;stroke-linecap:butt;stroke-linejoin:miter;stroke-opacity:1"
         inkscape:connector-curvature="0" />
      <path
         style="fill:none;stroke:#000000;stroke-width:0.75305629px;stroke-linecap:butt;stroke-linejoin:miter;stroke-opacity:1"
         d="m 403.11061,227.5974 c -5.97269,0.79193 -15.27305,-3.29368 -24.49797,4.56033"
         id="path2381"
         sodipodi:nodetypes="cc"
         inkscape:connector-curvature="0" />
      <path
         id="path2385"
         d="m 420,298.86218 24,-0.5 -15,-5 9,-3.5 -5,-5.5"
         style="fill:none;stroke:#514a4a;stroke-width:1px;stroke-linecap:butt;stroke-linejoin:miter;stroke-opacity:1"
         inkscape:connector-curvature="0" />
      <path
         sodipodi:nodetypes="ccccc"
         id="path3356"
         d="m 345.85491,156.53136 89.80256,-2.12132 c 2.18707,2.73537 4.38858,5.39856 5.65685,12.72792 l -99.70205,1.06066 c -0.5958,-5.2291 2.15812,-8.22504 4.24264,-11.66726 z"
         style="fill:#ffffff;fill-rule:evenodd;stroke:#000000;stroke-width:1px;stroke-linecap:butt;stroke-linejoin:miter;stroke-opacity:1"
         inkscape:connector-curvature="0" />
      <path
         style="fill:#ffffff;fill-rule:evenodd;stroke:#000000;stroke-width:1px;stroke-linecap:butt;stroke-linejoin:miter;stroke-opacity:1"
         d="m 350.4511,151.22806 82.7315,-1.76777 c 2.18707,2.73537 4.74213,4.69146 6.0104,12.02082 l -95.45941,-1.76777 c -0.26211,-6.397 6.04188,-9.97416 6.71751,-8.48528 z"
         id="path3358"
         sodipodi:nodetypes="ccccc"
         inkscape:connector-curvature="0" />
      <path
         id="path3360"
         d="m 416.56558,157.94557 -22.27386,-0.35355"
         style="fill:none;stroke:#000000;stroke-width:1px;stroke-linecap:butt;stroke-linejoin:miter;stroke-opacity:1"
         inkscape:connector-curvature="0" />
      <path
         sodipodi:nodetypes="cc"
         id="path3362"
         d="m 404.277,154.7207 15.2028,0"
         style="fill:none;stroke:#000000;stroke-width:1px;stroke-linecap:butt;stroke-linejoin:miter;stroke-opacity:1"
         inkscape:connector-curvature="0" />
      <path
         sodipodi:nodetypes="cc"
         id="path3364"
         d="m 348.68333,161.64532 22.83453,0.5"
         style="fill:none;stroke:#000000;stroke-width:1px;stroke-linecap:butt;stroke-linejoin:miter;stroke-opacity:1"
         inkscape:connector-curvature="0" />
      <path
         style="fill:none;stroke:#000000;stroke-width:1.32799995;stroke-linecap:butt;stroke-linejoin:miter;stroke-miterlimit:4;stroke-opacity:1;stroke-dasharray:none"
         d="m 359.92213,143.14984 c -4.27409,-4.7247 8.65779,-11.8652 7.86113,-18.32862"
         id="path3384"
         sodipodi:nodetypes="cc"
         inkscape:connector-curvature="0" />
      <path
         sodipodi:nodetypes="cc"
         id="path3386"
         d="m 399.96405,181.79097 c 18.84445,-3.59638 19.73416,4.33527 20.99548,5.38613"
         style="fill:none;stroke:#000000;stroke-width:0.75305629px;stroke-linecap:butt;stroke-linejoin:miter;stroke-opacity:1"
         inkscape:connector-curvature="0" />
      <path
         id="path3388"
         d="m 322,402.36218 21,-4.25"
         style="fill:none;stroke:#000000;stroke-width:1px;stroke-linecap:butt;stroke-linejoin:miter;stroke-opacity:1"
         inkscape:connector-curvature="0" />
      <path
         sodipodi:nodetypes="cc"
         id="path3390"
         d="M 328.93934,396.40507 347,392.86218"
         style="fill:none;stroke:#000000;stroke-width:1px;stroke-linecap:butt;stroke-linejoin:miter;stroke-opacity:1"
         inkscape:connector-curvature="0" />
      <path
         sodipodi:nodetypes="cc"
         id="path3392"
         d="M 325.89645,392.38731 341,389.36218"
         style="fill:none;stroke:#000000;stroke-width:1px;stroke-linecap:butt;stroke-linejoin:miter;stroke-opacity:1"
         inkscape:connector-curvature="0" />
      <path
         sodipodi:nodetypes="cc"
         id="path3394"
         d="m 294,293.86218 c -6.36288,14.88717 -1.18617,4.35842 -11,16.25"
         style="fill:none;stroke:#6f6f6f;stroke-width:1px;stroke-linecap:butt;stroke-linejoin:miter;stroke-opacity:1"
         inkscape:connector-curvature="0" />
      <path
         id="path4230"
         d="m 386.25104,369.37451 c 0,1.69013 -1.31206,3.06183 -2.9287,3.06183 -1.61664,0 -2.9287,-1.3717 -2.9287,-3.06183 0,-1.69013 1.31206,-3.06182 2.9287,-3.06182 1.61664,0 2.9287,1.37169 2.9287,3.06182 z"
         style="fill:#800000;fill-opacity:1;stroke:#fff9f9;stroke-width:1.73202944;stroke-miterlimit:4;stroke-opacity:1;stroke-dashoffset:0"
         inkscape:connector-curvature="0" />
      <path
         style="fill:none;stroke:#6f6f6f;stroke-width:1px;stroke-linecap:butt;stroke-linejoin:miter;stroke-opacity:1"
         d="m 464.79549,267.10906 c 3.47742,7.2086 5.61449,36.77678 5.77478,39.54701"
         id="path3396"
         sodipodi:nodetypes="cs"
         inkscape:connector-curvature="0" />
    </g>
  </a>
</svg>
