<?xml version="1.0" encoding="UTF-8" standalone="no"?>
<!-- Created with Inkscape (http://www.inkscape.org/) -->

<svg
   xmlns:dc="http://purl.org/dc/elements/1.1/"
   xmlns:cc="http://creativecommons.org/ns#"
   xmlns:rdf="http://www.w3.org/1999/02/22-rdf-syntax-ns#"
   xmlns:svg="http://www.w3.org/2000/svg"
   xmlns="http://www.w3.org/2000/svg"
   xmlns:xlink="http://www.w3.org/1999/xlink"
   xmlns:sodipodi="http://sodipodi.sourceforge.net/DTD/sodipodi-0.dtd"
   xmlns:inkscape="http://www.inkscape.org/namespaces/inkscape"
   width="992.03571"
   height="434.54346"
   id="svg2232"
   sodipodi:version="0.32"
   inkscape:version="0.48.1 r9760"
   sodipodi:docname="valessiobrito_Wedding_Rings.svg"
   version="1.0"
   inkscape:output_extension="org.inkscape.output.svg.inkscape"
   inkscape:export-filename="/home/matthieu/Bureau/Matthieu/Programmation/Lazarus Delphi/AncestroWeb/Resources/valessiobrito_Wedding_Rings.png"
   inkscape:export-xdpi="2.2782531"
   inkscape:export-ydpi="2.2782531"
   sodipodi:modified="TRUE">
  <defs
     id="defs2234">
    <linearGradient
       inkscape:collect="always"
       id="linearGradient7289">
      <stop
         style="stop-color:#ffffff;stop-opacity:1;"
         offset="0"
         id="stop7291" />
      <stop
         style="stop-color:#ffffff;stop-opacity:0;"
         offset="1"
         id="stop7293" />
    </linearGradient>
    <radialGradient
       inkscape:collect="always"
       xlink:href="#linearGradient7289"
       id="radialGradient7295"
       cx="-1772.0527"
       cy="524.71814"
       fx="-1772.0527"
       fy="524.71814"
       r="271.43744"
       gradientTransform="matrix(0.356833,-1.62565,0.992534,0.217863,-2113.4,-2261.21)"
       gradientUnits="userSpaceOnUse" />
    <radialGradient
       inkscape:collect="always"
       xlink:href="#linearGradient7289"
       id="radialGradient7307"
       gradientUnits="userSpaceOnUse"
       gradientTransform="matrix(0.356833,-1.62565,0.992534,0.217863,769.74,-2575.09)"
       cx="-1772.0527"
       cy="524.71814"
       fx="-1772.0527"
       fy="524.71814"
       r="271.43744" />
    <radialGradient
       inkscape:collect="always"
       xlink:href="#linearGradient7289"
       id="radialGradient2176"
       gradientUnits="userSpaceOnUse"
       gradientTransform="matrix(-0.0760741,-1.66261,1.0151,-0.046447,-309.724,-2463.61)"
       cx="-1772.0527"
       cy="524.71814"
       fx="-1772.0527"
       fy="524.71814"
       r="271.43744" />
    <radialGradient
       inkscape:collect="always"
       xlink:href="#linearGradient7289"
       id="radialGradient2178"
       gradientUnits="userSpaceOnUse"
       gradientTransform="matrix(0.356833,-1.62565,0.992534,0.217863,769.74,-2579.09)"
       cx="-1772.0527"
       cy="524.71814"
       fx="-1772.0527"
       fy="524.71814"
       r="271.43744" />
    <filter
       inkscape:collect="always"
       x="-0.060469717"
       width="1.1209394"
       y="-0.10146028"
       height="1.2029206"
       id="filter3223"
       color-interpolation-filters="sRGB">
      <feGaussianBlur
         inkscape:collect="always"
         stdDeviation="16.413744"
         id="feGaussianBlur3225" />
    </filter>
    <filter
       inkscape:collect="always"
       x="-0.05957016"
       width="1.1191403"
       y="-0.1051362"
       height="1.2102724"
       id="filter3227"
       color-interpolation-filters="sRGB">
      <feGaussianBlur
         inkscape:collect="always"
         stdDeviation="16.413745"
         id="feGaussianBlur3229" />
    </filter>
    <filter
       inkscape:collect="always"
       id="filter6190"
       color-interpolation-filters="sRGB">
      <feGaussianBlur
         inkscape:collect="always"
         stdDeviation="6.0400935"
         id="feGaussianBlur6192" />
    </filter>
    <radialGradient
       inkscape:collect="always"
       xlink:href="#linearGradient7289"
       id="radialGradient6200"
       gradientUnits="userSpaceOnUse"
       gradientTransform="matrix(0.356833,-1.62565,0.992534,0.217863,-2113.4,-2261.21)"
       cx="-1772.0527"
       cy="524.71814"
       fx="-1772.0527"
       fy="524.71814"
       r="271.43744" />
    <radialGradient
       inkscape:collect="always"
       xlink:href="#linearGradient7289"
       id="radialGradient6202"
       gradientUnits="userSpaceOnUse"
       gradientTransform="matrix(-0.0760741,-1.66261,1.0151,-0.046447,-309.724,-2463.61)"
       cx="-1772.0527"
       cy="524.71814"
       fx="-1772.0527"
       fy="524.71814"
       r="271.43744" />
    <filter
       inkscape:collect="always"
       id="filter7203"
       color-interpolation-filters="sRGB">
      <feGaussianBlur
         inkscape:collect="always"
         stdDeviation="10.118681"
         id="feGaussianBlur7205" />
    </filter>
    <radialGradient
       inkscape:collect="always"
       xlink:href="#linearGradient7289"
       id="radialGradient7207"
       gradientUnits="userSpaceOnUse"
       gradientTransform="matrix(0.356833,-1.62565,0.992534,0.217863,769.74,-2575.09)"
       cx="-1772.0527"
       cy="524.71814"
       fx="-1772.0527"
       fy="524.71814"
       r="271.43744" />
    <radialGradient
       inkscape:collect="always"
       xlink:href="#linearGradient7289"
       id="radialGradient7209"
       gradientUnits="userSpaceOnUse"
       gradientTransform="matrix(0.356833,-1.62565,0.992534,0.217863,769.74,-2579.09)"
       cx="-1772.0527"
       cy="524.71814"
       fx="-1772.0527"
       fy="524.71814"
       r="271.43744" />
  </defs>
  <sodipodi:namedview
     id="base"
     pagecolor="#ffffff"
     bordercolor="#666666"
     borderopacity="1.0"
     inkscape:pageopacity="0.0"
     inkscape:pageshadow="2"
     inkscape:zoom="0.47590981"
     inkscape:cx="504.08479"
     inkscape:cy="227.96378"
     inkscape:document-units="px"
     inkscape:current-layer="layer1"
     inkscape:window-width="1012"
     inkscape:window-height="689"
     inkscape:window-x="0"
     inkscape:window-y="25"
     width="1052.3622px"
     height="744.09448px"
     showgrid="false"
     fit-margin-top="0"
     fit-margin-left="0"
     fit-margin-right="0"
     fit-margin-bottom="0"
     inkscape:window-maximized="0" />
  <metadata
     id="metadata2237">
    <rdf:RDF>
      <cc:Work
         rdf:about="">
        <dc:format>image/svg+xml</dc:format>
        <dc:type
           rdf:resource="http://purl.org/dc/dcmitype/StillImage" />
        <dc:title></dc:title>
      </cc:Work>
    </rdf:RDF>
  </metadata>
  <g
     inkscape:label="Camada 1"
     inkscape:groupmode="layer"
     id="layer1"
     transform="translate(-33.10565,-146.42785)">
    <path
       id="path7316"
       d="M 246.40039,232.84531 C 113.61899,268.37064 29.270192,349.79322 51.006992,430.91594 c 25.2937,94.39737 184.726398,152.81723 355.875698,130.3983 171.1493,-22.41889 289.5233,-117.23261 264.2296,-211.63 -25.2937,-94.39737 -184.7184,-152.78703 -355.8677,-130.36811 -24.0679,3.15267 -47.1164,7.71597 -68.8442,13.52918 z m -7.4775,88.12563 c 9.4149,-2.50947 19.1487,-4.82283 29.1741,-6.91131 19.2037,-4.0005 39.5002,-7.19123 60.5898,-9.44097 129.726,-13.83876 248.426,12.51101 288.9605,60.32968 -20.7802,49.5901 -111.6737,93.48986 -229.6645,105.66706 -135.4902,13.98316 -258.9681,-18.77674 -288.282498,-74.09937 23.153498,-30.59275 73.318498,-57.97886 139.222598,-75.54509 z"
       style="fill:#808000;fill-opacity:1;stroke:none;filter:url(#filter6190)"
       inkscape:connector-curvature="0" />
    <g
       id="g6194"
       transform="translate(0,40)">
      <path
         id="path7281"
         d="M 246.40039,194.84531 C 113.61899,230.37064 29.270192,311.79322 51.006992,392.91594 c 25.2937,94.39737 184.726398,152.81723 355.875698,130.3983 171.1493,-22.41889 289.5233,-117.23261 264.2296,-211.63 -25.2937,-94.39737 -184.7184,-152.78703 -355.8677,-130.36811 -24.0679,3.15267 -47.1164,7.71597 -68.8442,13.52918 z m -7.4775,88.12563 c 9.4149,-2.50947 19.1487,-4.82283 29.1741,-6.91131 19.2037,-4.0005 39.5002,-7.19123 60.5898,-9.44097 129.726,-13.83876 248.426,12.51101 288.9605,60.32968 -20.7802,49.5901 -111.6737,93.48986 -229.6645,105.66706 -135.4902,13.98316 -258.9681,-18.77674 -288.282498,-74.09937 23.153498,-30.59275 73.318498,-57.97886 139.222598,-75.54509 z"
         style="fill:#b7b700;fill-opacity:1;stroke:none"
         inkscape:connector-curvature="0" />
      <path
         id="path7283"
         d="M 249.35759,201.42927 C 143.34689,230.3599 75.734092,286.45949 90.379492,341.11683 c 2.5402,9.48006 7.4019,18.39937 14.330898,26.70068 34.3479,-44.85149 118.1844,-82.93981 223.1314,-95.79607 128.3403,-15.72195 246.6938,11.38227 288.9342,61.98671 14.547,-18.99535 20.2315,-39.19563 14.8688,-59.20959 -18.0251,-67.27057 -153.9096,-107.01058 -303.3034,-88.7095 -28.0112,3.43143 -54.5197,8.6639 -78.9838,15.34021 z"
         style="fill:#a7a700;fill-opacity:1;stroke:none"
         inkscape:connector-curvature="0" />
      <path
         transform="matrix(0.965926,-0.258819,0.258819,0.965926,2316.91,-828.436)"
         id="path7285"
         d="m -2262.8571,466.31307 c -64.7979,-0.0243 -121.8343,12.60915 -164.0313,34.75 -24.6382,21.48769 -38.8437,48.72629 -38.8437,80 0,91.58281 121.6088,183.1569 271.4374,204.375 149.8286,21.21812 271.4375,-35.91719 271.4375,-127.5 0,-39.02742 -22.0922,-78.02437 -59.0312,-111.59375 -55.3471,-36.70377 -129.4938,-64.50092 -210.9687,-75.28125 -24.0639,-3.18402 -47.5081,-4.74157 -70,-4.75 z m -19.0313,60.8125 c 8.5312,0.012 17.2979,0.27136 26.25,0.8125 17.1479,1.03654 35.0289,3.07752 53.375,6.15625 99.703,16.7314 185.0242,59.78675 219.7187,106.21875 20.857,15.89223 36.0971,32.76047 44.0938,49.6875 -32.907,42.52201 -132.0655,61.40098 -249.1875,42.625 -134.4926,-21.56078 -245.2843,-85.16282 -259.2813,-146.1875 8.7102,-6.77592 19.5037,-12.72593 32.0938,-17.75 -0.7661,-2.31219 -1.4118,-4.63043 -1.9062,-6.9375 26.5147,-22.07661 75.125,-34.70894 134.8437,-34.625 z"
         style="fill:url(#radialGradient6200);fill-opacity:1;stroke:none;filter:url(#filter3227)"
         inkscape:connector-curvature="0" />
      <path
         style="opacity:0.30041151;fill:url(#radialGradient6202);fill-opacity:1;stroke:none;filter:url(#filter6300)"
         d="M 251.84873,209.65859 C 189.25248,226.40604 137.42932,253.37112 102.40062,285.67893 84.163373,312.81127 77.491781,342.79839 85.586011,373.00648 109.28938,461.46868 250.45557,518.44778 400.67053,500.16441 550.8855,481.88105 653.56297,395.21788 629.85959,306.75568 619.75856,269.05809 588.32598,237.10781 543.95725,214.2428 480.99643,193.11456 402.18179,185.45515 320.69292,196.1294 c -24.06802,3.15267 -47.1165,7.716 -68.84419,13.52919 z m -2.6434,63.66602 c 8.24362,-2.19641 16.77873,-4.21491 25.56585,-6.00918 16.83187,-3.43698 34.63184,-6.09349 53.14964,-7.86799 100.63611,-9.64374 194.1936,9.86179 239.72339,45.73206 24.25953,9.95253 43.34616,22.30157 55.45141,36.58213 -20.78022,49.59006 -111.67373,93.48985 -229.66447,105.66704 -135.49022,13.98313 -258.96819,-18.77672 -288.2826,-74.09935 6.65967,-8.7994 15.54541,-17.34023 26.40619,-25.45167 -1.33844,-2.03512 -2.56214,-4.10725 -3.63681,-6.20775 19.89739,-28.18687 63.58185,-52.97003 121.2874,-68.34529 z"
         id="path2172"
         inkscape:connector-curvature="0" />
    </g>
    <path
       style="fill:#808000;fill-opacity:1;stroke:none;filter:url(#filter7203)"
       d="m 620.85648,170.71272 c -137.45161,-0.0515 -240.00001,56.76557 -239.99998,140.75 0,97.72735 138.87999,195.42082 309.99997,218.0625 171.11996,22.64171 310.00003,-38.30387 310.00003,-136.03123 0,-97.72735 -138.88004,-195.38958 -310.00002,-218.03127 -24.06377,-3.18398 -47.50799,-4.74156 -70,-4.75 z m -30.0313,83.1875 c 9.74359,0.0128 19.74446,0.29755 29.9688,0.875 19.58475,1.1061 40.01549,3.27721 60.96875,6.56252 128.88743,20.20834 236.723,76.38208 263.49994,133.06247 -32.90699,42.52205 -132.06547,61.40099 -249.18752,42.625 -134.49259,-21.56075 -245.2842,-85.16282 -259.28118,-146.1875 30.28255,-23.55776 85.82626,-37.02705 154.03121,-36.93749 z"
       id="path8311"
       inkscape:connector-curvature="0" />
    <g
       id="g6204"
       transform="translate(0,40)">
      <path
         style="fill:#b7b700;fill-opacity:1;stroke:none"
         d="m 618.85648,132.71272 c -137.45161,-0.0515 -240.00001,56.76557 -239.99998,140.75 0,97.72735 138.87999,195.42082 309.99997,218.0625 171.11996,22.64171 310.00006,-38.30387 310.00006,-136.03123 0,-97.72735 -138.88007,-195.38958 -310.00005,-218.03127 -24.06377,-3.18398 -47.50799,-4.74156 -70,-4.75 z m -30.0313,83.1875 c 9.74359,0.0128 19.74446,0.29755 29.9688,0.875 19.58475,1.1061 40.01549,3.27721 60.96875,6.56252 128.88743,20.20834 236.723,76.38208 263.49994,133.06247 -32.90699,42.52205 -132.06547,61.40099 -249.18752,42.625 -134.49259,-21.56075 -245.2842,-85.16282 -259.28118,-146.1875 30.28255,-23.55776 85.82626,-37.02705 154.03121,-36.93749 z"
         id="path7301"
         inkscape:connector-curvature="0" />
      <path
         style="fill:#a9a907;fill-opacity:1;stroke:none"
         d="m 620.00886,139.83771 c -109.88627,0.50726 -189.71486,37.19582 -189.71485,93.78127 3e-5,9.81448 2.38758,19.68818 6.93194,29.49998 44.78595,-34.43332 135.62377,-49.52533 240.32223,-34.78124 128.03635,18.03068 235.34197,74.84348 263.04567,134.65624 18.96768,-14.58306 29.6867,-32.62378 29.68672,-53.34375 0,-69.64362 -120.96888,-143.19901 -270.00888,-164.18749 -27.94486,-3.93533 -54.90436,-5.74205 -80.26283,-5.62501 z"
         id="path7303"
         inkscape:connector-curvature="0" />
      <path
         style="fill:url(#radialGradient7207);fill-opacity:1;stroke:none;filter:url(#filter3223)"
         d="m 620.28521,152.43138 c -64.79789,-0.0243 -121.83429,12.60914 -164.03129,34.74999 -24.6382,21.48769 -38.8437,48.72629 -38.8437,80 -10e-6,91.5828 121.60879,183.15689 271.43738,204.375 149.82859,21.21812 271.43749,-35.91718 271.43749,-127.49999 1e-5,-39.02742 -22.09219,-78.02437 -59.03119,-111.59375 -55.3471,-36.70377 -129.49379,-64.50092 -210.96869,-75.28125 -24.0639,-3.18402 -47.5081,-4.74157 -70,-4.75 z m -19.0313,60.81249 c 8.5312,0.012 17.2979,0.27136 26.25,0.81251 17.1479,1.03654 35.0289,3.07752 53.375,6.15625 99.703,16.7314 185.02419,59.78675 219.71869,106.21875 20.857,15.89223 36.0971,32.76047 44.09379,49.6875 -32.907,42.52201 -132.06549,61.40097 -249.18749,42.62499 -134.49259,-21.56078 -245.28429,-85.16283 -259.28128,-146.1875 8.7102,-6.77592 19.5037,-12.72593 32.0938,-17.75 -0.7661,-2.31219 -1.4118,-4.63043 -1.9062,-6.9375 26.5147,-22.07661 75.125,-34.70894 134.84369,-34.625 z"
         id="path7305"
         inkscape:connector-curvature="0" />
      <path
         id="path2174"
         d="m 620.28521,148.43138 c -64.79789,-0.0243 -121.83429,12.60914 -164.03129,34.74999 -24.6382,21.48769 -38.8437,48.72629 -38.8437,80 -10e-6,91.5828 121.60879,183.15689 271.43738,204.375 149.82859,21.21812 271.43749,-35.91718 271.43749,-127.49999 1e-5,-39.02742 -22.09219,-78.02437 -59.03119,-111.59375 -55.3471,-36.70377 -129.49379,-64.50092 -210.96869,-75.28125 -24.0639,-3.18402 -47.5081,-4.74157 -70,-4.75 z m -19.0313,60.81249 c 8.5312,0.012 17.2979,0.27136 26.25,0.81251 17.1479,1.03654 35.0289,3.07752 53.375,6.15625 99.703,16.7314 185.02419,59.78675 219.71869,106.21875 20.857,15.89223 36.0971,32.76047 44.09379,49.6875 -32.907,42.52201 -132.06549,61.40097 -249.18749,42.62499 -134.49259,-21.56078 -245.28429,-85.16283 -259.28128,-146.1875 8.7102,-6.77592 19.5037,-12.72593 32.0938,-17.75 -0.7661,-2.31219 -1.4118,-4.63043 -1.9062,-6.9375 26.5147,-22.07661 75.125,-34.70894 134.84369,-34.625 z"
         style="opacity:0.30041151;fill:url(#radialGradient7209);fill-opacity:1;stroke:none;filter:url(#filter6300)"
         inkscape:connector-curvature="0" />
    </g>
  </g>
</svg>
